ISO-10303-21;
HEADER;
/* Generated by software containing ST-Developer
 * from STEP Tools, Inc. (www.steptools.com) 
 */

FILE_DESCRIPTION(
/* description */ (''),
/* implementation_level */ '2;1');

FILE_NAME(
/* name */ 'drone_ellipse.step',
/* time_stamp */ '2026-08-05T20:03:32-07:00',
/* author */ (''),
/* organization */ (''),
/* preprocessor_version */ 'ST-DEVELOPER v20.1',
/* originating_system */ 'Autodesk Translation Framework v15.8.0.0',
/* authorisation */ '');

FILE_SCHEMA (('AUTOMOTIVE_DESIGN { 1 0 10303 214 3 1 1 }'));
ENDSEC;

DATA;
#10=MECHANICAL_DESIGN_GEOMETRIC_PRESENTATION_REPRESENTATION('',(#13),#737);
#11=SHAPE_REPRESENTATION_RELATIONSHIP('SRR','None',#744,#12);
#12=ADVANCED_BREP_SHAPE_REPRESENTATION('',(#14),#736);
#13=STYLED_ITEM('',(#753),#14);
#14=MANIFOLD_SOLID_BREP('Body1',#326);
#15=FACE_BOUND('',#50,.T.);
#16=(
BOUNDED_SURFACE()
B_SPLINE_SURFACE(1,2,((#670,#671,#672,#673,#674,#675,#676,#677,#678),(#679,
#680,#681,#682,#683,#684,#685,#686,#687)),.UNSPECIFIED.,.F.,.T.,.F.)
B_SPLINE_SURFACE_WITH_KNOTS((2,2),(3,2,2,2,3),(0.,8.57142857142857),(-3.14159265358979,
-1.5707963267949,0.,1.5707963267949,3.14159265358979),.UNSPECIFIED.)
GEOMETRIC_REPRESENTATION_ITEM()
RATIONAL_B_SPLINE_SURFACE(((1.,0.707106781186548,1.,0.707106781186548,1.,
0.707106781186548,1.,0.707106781186548,1.),(1.,0.707106781186548,1.,0.707106781186548,
1.,0.707106781186548,1.,0.707106781186548,1.)))
REPRESENTATION_ITEM('')
SURFACE()
);
#17=B_SPLINE_SURFACE_WITH_KNOTS('',3,1,((#479,#480),(#481,#482),(#483,#484),
(#485,#486),(#487,#488),(#489,#490),(#491,#492)),.UNSPECIFIED.,.F.,.F.,
 .F.,(4,3,4),(2,2),(-3.14159265358979,-2.98666826498409,-2.8244053250173),
(0.,15.),.UNSPECIFIED.);
#18=B_SPLINE_SURFACE_WITH_KNOTS('',3,1,((#512,#513),(#514,#515),(#516,#517),
(#518,#519)),.UNSPECIFIED.,.F.,.F.,.F.,(4,4),(2,2),(2.8244053250173,3.14159265358979),
(0.,15.),.UNSPECIFIED.);
#19=B_SPLINE_SURFACE_WITH_KNOTS('',3,1,((#530,#531),(#532,#533),(#534,#535),
(#536,#537),(#538,#539),(#540,#541),(#542,#543),(#544,#545),(#546,#547),
(#548,#549),(#550,#551),(#552,#553),(#554,#555),(#556,#557),(#558,#559),
(#560,#561)),.UNSPECIFIED.,.F.,.F.,.F.,(4,3,3,3,3,4),(2,2),(0.317187329080185,
0.826824798329901,1.41458085964064,2.12392403216578,2.70418967541909,2.82440532501679),
(0.,15.),.UNSPECIFIED.);
#20=B_SPLINE_SURFACE_WITH_KNOTS('',3,1,((#580,#581),(#582,#583),(#584,#585),
(#586,#587),(#588,#589),(#590,#591),(#592,#593),(#594,#595),(#596,#597),
(#598,#599)),.UNSPECIFIED.,.F.,.F.,.F.,(4,3,3,4),(2,2),(-0.317187328572493,
-0.125797287776551,0.294919451740993,0.317187328572493),(0.,15.),
 .UNSPECIFIED.);
#21=B_SPLINE_SURFACE_WITH_KNOTS('',3,1,((#622,#623),(#624,#625),(#626,#627),
(#628,#629),(#630,#631),(#632,#633),(#634,#635),(#636,#637),(#638,#639),
(#640,#641),(#642,#643),(#644,#645),(#646,#647),(#648,#649),(#650,#651),
(#652,#653)),.UNSPECIFIED.,.F.,.F.,.F.,(4,3,3,3,3,4),(2,2),(-2.82440532501617,
-2.52798516629698,-1.9154908355402,-1.20058641709933,-0.58412449260106,
-0.31718732857519),(0.,15.),.UNSPECIFIED.);
#22=FACE_OUTER_BOUND('',#41,.T.);
#23=FACE_OUTER_BOUND('',#42,.T.);
#24=FACE_OUTER_BOUND('',#43,.T.);
#25=FACE_OUTER_BOUND('',#44,.T.);
#26=FACE_OUTER_BOUND('',#45,.T.);
#27=FACE_OUTER_BOUND('',#46,.T.);
#28=FACE_OUTER_BOUND('',#47,.T.);
#29=FACE_OUTER_BOUND('',#48,.T.);
#30=FACE_OUTER_BOUND('',#49,.T.);
#31=FACE_OUTER_BOUND('',#51,.T.);
#32=FACE_OUTER_BOUND('',#52,.T.);
#33=FACE_OUTER_BOUND('',#53,.T.);
#34=FACE_OUTER_BOUND('',#54,.T.);
#35=FACE_OUTER_BOUND('',#55,.T.);
#36=FACE_OUTER_BOUND('',#56,.T.);
#37=FACE_OUTER_BOUND('',#57,.T.);
#38=FACE_OUTER_BOUND('',#58,.T.);
#39=FACE_OUTER_BOUND('',#59,.T.);
#40=FACE_OUTER_BOUND('',#60,.T.);
#41=EDGE_LOOP('',(#204,#205,#206,#207));
#42=EDGE_LOOP('',(#208,#209,#210,#211));
#43=EDGE_LOOP('',(#212,#213,#214,#215));
#44=EDGE_LOOP('',(#216,#217,#218,#219));
#45=EDGE_LOOP('',(#220,#221,#222,#223));
#46=EDGE_LOOP('',(#224,#225,#226,#227));
#47=EDGE_LOOP('',(#228,#229,#230,#231));
#48=EDGE_LOOP('',(#232,#233,#234,#235,#236,#237,#238,#239,#240));
#49=EDGE_LOOP('',(#241));
#50=EDGE_LOOP('',(#242,#243,#244,#245,#246));
#51=EDGE_LOOP('',(#247,#248,#249));
#52=EDGE_LOOP('',(#250,#251,#252));
#53=EDGE_LOOP('',(#253,#254,#255));
#54=EDGE_LOOP('',(#256,#257,#258));
#55=EDGE_LOOP('',(#259,#260,#261,#262,#263));
#56=EDGE_LOOP('',(#264,#265,#266,#267,#268));
#57=EDGE_LOOP('',(#269,#270,#271,#272,#273,#274,#275,#276));
#58=EDGE_LOOP('',(#277,#278,#279,#280,#281));
#59=EDGE_LOOP('',(#282,#283,#284,#285,#286,#287,#288,#289));
#60=EDGE_LOOP('',(#290,#291,#292,#293));
#61=ELLIPSE('',#341,17.5,9.);
#62=ELLIPSE('',#343,17.5,9.);
#63=ELLIPSE('',#344,17.5,9.);
#64=ELLIPSE('',#345,17.5,9.);
#65=ELLIPSE('',#346,17.5,9.);
#66=ELLIPSE('',#347,17.5,9.);
#67=ELLIPSE('',#348,17.5,9.);
#68=B_SPLINE_CURVE_WITH_KNOTS('',3,(#436,#437,#438,#439,#440,#441,#442,
#443,#444,#445,#446,#447,#448,#449,#450,#451),.UNSPECIFIED.,.F.,.F.,(4,
3,3,3,3,4),(0.31718732857519,0.58412449259877,1.20058641709798,1.91549083553994,
2.52798516629766,2.82440532501617),.UNSPECIFIED.);
#69=B_SPLINE_CURVE_WITH_KNOTS('',3,(#463,#464,#465,#466,#467,#468,#469,
#470,#471,#472,#473,#474,#475,#476,#477,#478),.UNSPECIFIED.,.F.,.F.,(4,
3,3,3,3,4),(-2.82440532501679,-2.70418967541909,-2.12392403216578,-1.41458085964064,
-0.826824798329901,-0.317187329080185),.UNSPECIFIED.);
#70=B_SPLINE_CURVE_WITH_KNOTS('',3,(#494,#495,#496,#497,#498,#499,#500),
 .UNSPECIFIED.,.F.,.F.,(4,3,4),(2.8244053250173,2.98666826498464,3.14159265358979),
 .UNSPECIFIED.);
#71=B_SPLINE_CURVE_WITH_KNOTS('',3,(#504,#505,#506,#507,#508,#509,#510),
 .UNSPECIFIED.,.F.,.F.,(4,3,4),(-3.14159265358979,-2.98666826498464,-2.8244053250173),
 .UNSPECIFIED.);
#72=B_SPLINE_CURVE_WITH_KNOTS('',3,(#520,#521,#522,#523),.UNSPECIFIED.,
 .F.,.F.,(4,4),(-3.14159265358979,-2.8244053250173),.UNSPECIFIED.);
#73=B_SPLINE_CURVE_WITH_KNOTS('',3,(#525,#526,#527,#528),.UNSPECIFIED.,
 .F.,.F.,(4,4),(2.8244053250173,3.14159265358979),.UNSPECIFIED.);
#74=B_SPLINE_CURVE_WITH_KNOTS('',3,(#563,#564,#565,#566,#567,#568,#569,
#570,#571,#572,#573,#574,#575,#576,#577,#578),.UNSPECIFIED.,.F.,.F.,(4,
3,3,3,3,4),(0.317187329080185,0.826824798329901,1.41458085964064,2.12392403216578,
2.70418967541909,2.82440532501679),.UNSPECIFIED.);
#75=B_SPLINE_CURVE_WITH_KNOTS('',3,(#600,#601,#602,#603,#604,#605,#606,
#607,#608,#609),.UNSPECIFIED.,.F.,.F.,(4,3,3,4),(-0.317187328572493,-0.294919451740993,
0.125797287776551,0.317187328572493),.UNSPECIFIED.);
#76=B_SPLINE_CURVE_WITH_KNOTS('',3,(#611,#612,#613,#614,#615,#616,#617,
#618,#619,#620),.UNSPECIFIED.,.F.,.F.,(4,3,3,4),(-0.317187328572493,-0.125797287776551,
0.294919451740993,0.317187328572493),.UNSPECIFIED.);
#77=B_SPLINE_CURVE_WITH_KNOTS('',3,(#654,#655,#656,#657,#658,#659,#660,
#661,#662,#663,#664,#665,#666,#667,#668,#669),.UNSPECIFIED.,.F.,.F.,(4,
3,3,3,3,4),(-2.82440532501617,-2.52798516629766,-1.91549083553994,-1.20058641709798,
-0.58412449259877,-0.31718732857519),.UNSPECIFIED.);
#78=LINE('',#434,#106);
#79=LINE('',#453,#107);
#80=LINE('',#458,#108);
#81=LINE('',#462,#109);
#82=LINE('',#502,#110);
#83=LINE('',#511,#111);
#84=LINE('',#529,#112);
#85=LINE('',#579,#113);
#86=LINE('',#621,#114);
#87=LINE('',#691,#115);
#88=LINE('',#700,#116);
#89=LINE('',#701,#117);
#90=LINE('',#704,#118);
#91=LINE('',#705,#119);
#92=LINE('',#708,#120);
#93=LINE('',#709,#121);
#94=LINE('',#712,#122);
#95=LINE('',#713,#123);
#96=LINE('',#715,#124);
#97=LINE('',#716,#125);
#98=LINE('',#719,#126);
#99=LINE('',#721,#127);
#100=LINE('',#722,#128);
#101=LINE('',#725,#129);
#102=LINE('',#726,#130);
#103=LINE('',#729,#131);
#104=LINE('',#730,#132);
#105=LINE('',#732,#133);
#106=VECTOR('',#364,10.);
#107=VECTOR('',#365,10.);
#108=VECTOR('',#370,10.);
#109=VECTOR('',#373,10.);
#110=VECTOR('',#374,10.);
#111=VECTOR('',#375,10.);
#112=VECTOR('',#376,10.);
#113=VECTOR('',#377,10.);
#114=VECTOR('',#378,10.);
#115=VECTOR('',#381,17.5);
#116=VECTOR('',#394,10.);
#117=VECTOR('',#395,10.);
#118=VECTOR('',#398,10.);
#119=VECTOR('',#399,10.);
#120=VECTOR('',#402,10.);
#121=VECTOR('',#403,10.);
#122=VECTOR('',#406,10.);
#123=VECTOR('',#407,10.);
#124=VECTOR('',#410,10.);
#125=VECTOR('',#411,10.);
#126=VECTOR('',#414,10.);
#127=VECTOR('',#415,10.);
#128=VECTOR('',#416,10.);
#129=VECTOR('',#419,10.);
#130=VECTOR('',#420,10.);
#131=VECTOR('',#423,10.);
#132=VECTOR('',#424,10.);
#133=VECTOR('',#427,10.);
#134=VERTEX_POINT('',#432);
#135=VERTEX_POINT('',#433);
#136=VERTEX_POINT('',#435);
#137=VERTEX_POINT('',#452);
#138=VERTEX_POINT('',#456);
#139=VERTEX_POINT('',#457);
#140=VERTEX_POINT('',#459);
#141=VERTEX_POINT('',#461);
#142=VERTEX_POINT('',#493);
#143=VERTEX_POINT('',#501);
#144=VERTEX_POINT('',#503);
#145=VERTEX_POINT('',#524);
#146=VERTEX_POINT('',#562);
#147=VERTEX_POINT('',#610);
#148=VERTEX_POINT('',#688);
#149=VERTEX_POINT('',#690);
#150=VERTEX_POINT('',#693);
#151=VERTEX_POINT('',#699);
#152=VERTEX_POINT('',#703);
#153=VERTEX_POINT('',#707);
#154=VERTEX_POINT('',#711);
#155=VERTEX_POINT('',#718);
#156=VERTEX_POINT('',#720);
#157=VERTEX_POINT('',#724);
#158=VERTEX_POINT('',#728);
#159=EDGE_CURVE('',#134,#135,#78,.T.);
#160=EDGE_CURVE('',#134,#136,#68,.T.);
#161=EDGE_CURVE('',#137,#136,#79,.T.);
#162=EDGE_CURVE('',#135,#137,#61,.T.);
#163=EDGE_CURVE('',#138,#139,#80,.T.);
#164=EDGE_CURVE('',#140,#138,#62,.T.);
#165=EDGE_CURVE('',#141,#140,#81,.T.);
#166=EDGE_CURVE('',#141,#139,#69,.T.);
#167=EDGE_CURVE('',#136,#142,#70,.T.);
#168=EDGE_CURVE('',#136,#143,#82,.T.);
#169=EDGE_CURVE('',#144,#143,#71,.T.);
#170=EDGE_CURVE('',#142,#144,#83,.T.);
#171=EDGE_CURVE('',#142,#141,#72,.T.);
#172=EDGE_CURVE('',#145,#144,#73,.T.);
#173=EDGE_CURVE('',#141,#145,#84,.T.);
#174=EDGE_CURVE('',#146,#145,#74,.T.);
#175=EDGE_CURVE('',#139,#146,#85,.T.);
#176=EDGE_CURVE('',#139,#134,#75,.T.);
#177=EDGE_CURVE('',#147,#146,#76,.T.);
#178=EDGE_CURVE('',#134,#147,#86,.T.);
#179=EDGE_CURVE('',#143,#147,#77,.T.);
#180=EDGE_CURVE('',#148,#148,#63,.T.);
#181=EDGE_CURVE('',#148,#149,#87,.T.);
#182=EDGE_CURVE('',#140,#149,#64,.T.);
#183=EDGE_CURVE('',#150,#138,#65,.T.);
#184=EDGE_CURVE('',#135,#150,#66,.T.);
#185=EDGE_CURVE('',#149,#137,#67,.T.);
#186=EDGE_CURVE('',#151,#149,#88,.T.);
#187=EDGE_CURVE('',#140,#151,#89,.T.);
#188=EDGE_CURVE('',#152,#137,#90,.T.);
#189=EDGE_CURVE('',#149,#152,#91,.T.);
#190=EDGE_CURVE('',#153,#150,#92,.T.);
#191=EDGE_CURVE('',#135,#153,#93,.T.);
#192=EDGE_CURVE('',#154,#138,#94,.T.);
#193=EDGE_CURVE('',#150,#154,#95,.T.);
#194=EDGE_CURVE('',#136,#134,#96,.T.);
#195=EDGE_CURVE('',#139,#141,#97,.T.);
#196=EDGE_CURVE('',#154,#155,#98,.T.);
#197=EDGE_CURVE('',#156,#155,#99,.T.);
#198=EDGE_CURVE('',#153,#156,#100,.T.);
#199=EDGE_CURVE('',#157,#156,#101,.T.);
#200=EDGE_CURVE('',#152,#157,#102,.T.);
#201=EDGE_CURVE('',#158,#157,#103,.T.);
#202=EDGE_CURVE('',#151,#158,#104,.T.);
#203=EDGE_CURVE('',#155,#158,#105,.T.);
#204=ORIENTED_EDGE('',*,*,#159,.F.);
#205=ORIENTED_EDGE('',*,*,#160,.T.);
#206=ORIENTED_EDGE('',*,*,#161,.F.);
#207=ORIENTED_EDGE('',*,*,#162,.F.);
#208=ORIENTED_EDGE('',*,*,#163,.F.);
#209=ORIENTED_EDGE('',*,*,#164,.F.);
#210=ORIENTED_EDGE('',*,*,#165,.F.);
#211=ORIENTED_EDGE('',*,*,#166,.T.);
#212=ORIENTED_EDGE('',*,*,#167,.F.);
#213=ORIENTED_EDGE('',*,*,#168,.T.);
#214=ORIENTED_EDGE('',*,*,#169,.F.);
#215=ORIENTED_EDGE('',*,*,#170,.F.);
#216=ORIENTED_EDGE('',*,*,#171,.F.);
#217=ORIENTED_EDGE('',*,*,#170,.T.);
#218=ORIENTED_EDGE('',*,*,#172,.F.);
#219=ORIENTED_EDGE('',*,*,#173,.F.);
#220=ORIENTED_EDGE('',*,*,#166,.F.);
#221=ORIENTED_EDGE('',*,*,#173,.T.);
#222=ORIENTED_EDGE('',*,*,#174,.F.);
#223=ORIENTED_EDGE('',*,*,#175,.F.);
#224=ORIENTED_EDGE('',*,*,#176,.F.);
#225=ORIENTED_EDGE('',*,*,#175,.T.);
#226=ORIENTED_EDGE('',*,*,#177,.F.);
#227=ORIENTED_EDGE('',*,*,#178,.F.);
#228=ORIENTED_EDGE('',*,*,#160,.F.);
#229=ORIENTED_EDGE('',*,*,#178,.T.);
#230=ORIENTED_EDGE('',*,*,#179,.F.);
#231=ORIENTED_EDGE('',*,*,#168,.F.);
#232=ORIENTED_EDGE('',*,*,#180,.F.);
#233=ORIENTED_EDGE('',*,*,#181,.T.);
#234=ORIENTED_EDGE('',*,*,#182,.F.);
#235=ORIENTED_EDGE('',*,*,#164,.T.);
#236=ORIENTED_EDGE('',*,*,#183,.F.);
#237=ORIENTED_EDGE('',*,*,#184,.F.);
#238=ORIENTED_EDGE('',*,*,#162,.T.);
#239=ORIENTED_EDGE('',*,*,#185,.F.);
#240=ORIENTED_EDGE('',*,*,#181,.F.);
#241=ORIENTED_EDGE('',*,*,#180,.T.);
#242=ORIENTED_EDGE('',*,*,#179,.T.);
#243=ORIENTED_EDGE('',*,*,#177,.T.);
#244=ORIENTED_EDGE('',*,*,#174,.T.);
#245=ORIENTED_EDGE('',*,*,#172,.T.);
#246=ORIENTED_EDGE('',*,*,#169,.T.);
#247=ORIENTED_EDGE('',*,*,#182,.T.);
#248=ORIENTED_EDGE('',*,*,#186,.F.);
#249=ORIENTED_EDGE('',*,*,#187,.F.);
#250=ORIENTED_EDGE('',*,*,#185,.T.);
#251=ORIENTED_EDGE('',*,*,#188,.F.);
#252=ORIENTED_EDGE('',*,*,#189,.F.);
#253=ORIENTED_EDGE('',*,*,#184,.T.);
#254=ORIENTED_EDGE('',*,*,#190,.F.);
#255=ORIENTED_EDGE('',*,*,#191,.F.);
#256=ORIENTED_EDGE('',*,*,#183,.T.);
#257=ORIENTED_EDGE('',*,*,#192,.F.);
#258=ORIENTED_EDGE('',*,*,#193,.F.);
#259=ORIENTED_EDGE('',*,*,#176,.T.);
#260=ORIENTED_EDGE('',*,*,#194,.F.);
#261=ORIENTED_EDGE('',*,*,#167,.T.);
#262=ORIENTED_EDGE('',*,*,#171,.T.);
#263=ORIENTED_EDGE('',*,*,#195,.F.);
#264=ORIENTED_EDGE('',*,*,#190,.T.);
#265=ORIENTED_EDGE('',*,*,#193,.T.);
#266=ORIENTED_EDGE('',*,*,#196,.T.);
#267=ORIENTED_EDGE('',*,*,#197,.F.);
#268=ORIENTED_EDGE('',*,*,#198,.F.);
#269=ORIENTED_EDGE('',*,*,#188,.T.);
#270=ORIENTED_EDGE('',*,*,#161,.T.);
#271=ORIENTED_EDGE('',*,*,#194,.T.);
#272=ORIENTED_EDGE('',*,*,#159,.T.);
#273=ORIENTED_EDGE('',*,*,#191,.T.);
#274=ORIENTED_EDGE('',*,*,#198,.T.);
#275=ORIENTED_EDGE('',*,*,#199,.F.);
#276=ORIENTED_EDGE('',*,*,#200,.F.);
#277=ORIENTED_EDGE('',*,*,#186,.T.);
#278=ORIENTED_EDGE('',*,*,#189,.T.);
#279=ORIENTED_EDGE('',*,*,#200,.T.);
#280=ORIENTED_EDGE('',*,*,#201,.F.);
#281=ORIENTED_EDGE('',*,*,#202,.F.);
#282=ORIENTED_EDGE('',*,*,#192,.T.);
#283=ORIENTED_EDGE('',*,*,#163,.T.);
#284=ORIENTED_EDGE('',*,*,#195,.T.);
#285=ORIENTED_EDGE('',*,*,#165,.T.);
#286=ORIENTED_EDGE('',*,*,#187,.T.);
#287=ORIENTED_EDGE('',*,*,#202,.T.);
#288=ORIENTED_EDGE('',*,*,#203,.F.);
#289=ORIENTED_EDGE('',*,*,#196,.F.);
#290=ORIENTED_EDGE('',*,*,#203,.T.);
#291=ORIENTED_EDGE('',*,*,#201,.T.);
#292=ORIENTED_EDGE('',*,*,#199,.T.);
#293=ORIENTED_EDGE('',*,*,#197,.T.);
#294=PLANE('',#340);
#295=PLANE('',#342);
#296=PLANE('',#349);
#297=PLANE('',#350);
#298=PLANE('',#351);
#299=PLANE('',#352);
#300=PLANE('',#353);
#301=PLANE('',#354);
#302=PLANE('',#355);
#303=PLANE('',#356);
#304=PLANE('',#357);
#305=PLANE('',#358);
#306=PLANE('',#359);
#307=ADVANCED_FACE('',(#22),#294,.F.);
#308=ADVANCED_FACE('',(#23),#295,.F.);
#309=ADVANCED_FACE('',(#24),#17,.T.);
#310=ADVANCED_FACE('',(#25),#18,.T.);
#311=ADVANCED_FACE('',(#26),#19,.T.);
#312=ADVANCED_FACE('',(#27),#20,.T.);
#313=ADVANCED_FACE('',(#28),#21,.T.);
#314=ADVANCED_FACE('',(#29),#16,.F.);
#315=ADVANCED_FACE('',(#30,#15),#296,.T.);
#316=ADVANCED_FACE('',(#31),#297,.T.);
#317=ADVANCED_FACE('',(#32),#298,.T.);
#318=ADVANCED_FACE('',(#33),#299,.T.);
#319=ADVANCED_FACE('',(#34),#300,.T.);
#320=ADVANCED_FACE('',(#35),#301,.T.);
#321=ADVANCED_FACE('',(#36),#302,.T.);
#322=ADVANCED_FACE('',(#37),#303,.T.);
#323=ADVANCED_FACE('',(#38),#304,.T.);
#324=ADVANCED_FACE('',(#39),#305,.T.);
#325=ADVANCED_FACE('',(#40),#306,.T.);
#326=CLOSED_SHELL('',(#307,#308,#309,#310,#311,#312,#313,#314,#315,#316,
#317,#318,#319,#320,#321,#322,#323,#324,#325));
#327=DERIVED_UNIT_ELEMENT(#329,1.);
#328=DERIVED_UNIT_ELEMENT(#739,-3.);
#329=(
MASS_UNIT()
NAMED_UNIT(*)
SI_UNIT(.KILO.,.GRAM.)
);
#330=DERIVED_UNIT((#327,#328));
#331=MEASURE_REPRESENTATION_ITEM('density measure',
POSITIVE_RATIO_MEASURE(7850.),#330);
#332=PROPERTY_DEFINITION_REPRESENTATION(#337,#334);
#333=PROPERTY_DEFINITION_REPRESENTATION(#338,#335);
#334=REPRESENTATION('material name',(#336),#736);
#335=REPRESENTATION('density',(#331),#736);
#336=DESCRIPTIVE_REPRESENTATION_ITEM('Steel','Steel');
#337=PROPERTY_DEFINITION('material property','material name',#746);
#338=PROPERTY_DEFINITION('material property','density of part',#746);
#339=AXIS2_PLACEMENT_3D('',#430,#360,#361);
#340=AXIS2_PLACEMENT_3D('',#431,#362,#363);
#341=AXIS2_PLACEMENT_3D('',#454,#366,#367);
#342=AXIS2_PLACEMENT_3D('',#455,#368,#369);
#343=AXIS2_PLACEMENT_3D('',#460,#371,#372);
#344=AXIS2_PLACEMENT_3D('',#689,#379,#380);
#345=AXIS2_PLACEMENT_3D('',#692,#382,#383);
#346=AXIS2_PLACEMENT_3D('',#694,#384,#385);
#347=AXIS2_PLACEMENT_3D('',#695,#386,#387);
#348=AXIS2_PLACEMENT_3D('',#696,#388,#389);
#349=AXIS2_PLACEMENT_3D('',#697,#390,#391);
#350=AXIS2_PLACEMENT_3D('',#698,#392,#393);
#351=AXIS2_PLACEMENT_3D('',#702,#396,#397);
#352=AXIS2_PLACEMENT_3D('',#706,#400,#401);
#353=AXIS2_PLACEMENT_3D('',#710,#404,#405);
#354=AXIS2_PLACEMENT_3D('',#714,#408,#409);
#355=AXIS2_PLACEMENT_3D('',#717,#412,#413);
#356=AXIS2_PLACEMENT_3D('',#723,#417,#418);
#357=AXIS2_PLACEMENT_3D('',#727,#421,#422);
#358=AXIS2_PLACEMENT_3D('',#731,#425,#426);
#359=AXIS2_PLACEMENT_3D('',#733,#428,#429);
#360=DIRECTION('axis',(0.,0.,1.));
#361=DIRECTION('refdir',(1.,0.,0.));
#362=DIRECTION('center_axis',(1.,0.,0.));
#363=DIRECTION('ref_axis',(0.,1.,0.));
#364=DIRECTION('',(0.,1.,0.));
#365=DIRECTION('',(0.,1.,0.));
#366=DIRECTION('center_axis',(1.,0.,0.));
#367=DIRECTION('ref_axis',(0.,1.,0.));
#368=DIRECTION('center_axis',(1.,0.,0.));
#369=DIRECTION('ref_axis',(0.,1.,0.));
#370=DIRECTION('',(0.,-1.,0.));
#371=DIRECTION('center_axis',(1.,0.,0.));
#372=DIRECTION('ref_axis',(0.,1.,0.));
#373=DIRECTION('',(0.,-1.,0.));
#374=DIRECTION('',(1.,0.,0.));
#375=DIRECTION('',(1.,0.,0.));
#376=DIRECTION('',(1.,0.,0.));
#377=DIRECTION('',(1.,0.,0.));
#378=DIRECTION('',(1.,0.,0.));
#379=DIRECTION('center_axis',(1.,0.,0.));
#380=DIRECTION('ref_axis',(0.,1.,0.));
#381=DIRECTION('',(-1.,0.,0.));
#382=DIRECTION('center_axis',(-1.,0.,0.));
#383=DIRECTION('ref_axis',(0.,1.,0.));
#384=DIRECTION('center_axis',(-1.,0.,0.));
#385=DIRECTION('ref_axis',(0.,1.,0.));
#386=DIRECTION('center_axis',(-1.,0.,0.));
#387=DIRECTION('ref_axis',(0.,1.,0.));
#388=DIRECTION('center_axis',(-1.,0.,0.));
#389=DIRECTION('ref_axis',(0.,1.,0.));
#390=DIRECTION('center_axis',(1.,0.,0.));
#391=DIRECTION('ref_axis',(0.,1.,0.));
#392=DIRECTION('center_axis',(1.,0.,0.));
#393=DIRECTION('ref_axis',(0.,1.,0.));
#394=DIRECTION('',(0.,0.,1.));
#395=DIRECTION('',(0.,-1.,0.));
#396=DIRECTION('center_axis',(1.,0.,0.));
#397=DIRECTION('ref_axis',(0.,1.,0.));
#398=DIRECTION('',(0.,1.,0.));
#399=DIRECTION('',(0.,0.,1.));
#400=DIRECTION('center_axis',(1.,0.,0.));
#401=DIRECTION('ref_axis',(0.,1.,0.));
#402=DIRECTION('',(0.,0.,-1.));
#403=DIRECTION('',(0.,1.,0.));
#404=DIRECTION('center_axis',(1.,0.,0.));
#405=DIRECTION('ref_axis',(0.,1.,0.));
#406=DIRECTION('',(0.,-1.,0.));
#407=DIRECTION('',(0.,0.,-1.));
#408=DIRECTION('center_axis',(1.,0.,0.));
#409=DIRECTION('ref_axis',(0.,1.,0.));
#410=DIRECTION('',(0.,1.,0.));
#411=DIRECTION('',(0.,-1.,0.));
#412=DIRECTION('center_axis',(0.,1.,0.));
#413=DIRECTION('ref_axis',(0.,0.,-1.));
#414=DIRECTION('',(-1.,0.,0.));
#415=DIRECTION('',(0.,0.,-1.));
#416=DIRECTION('',(-1.,0.,0.));
#417=DIRECTION('center_axis',(0.,0.,1.));
#418=DIRECTION('ref_axis',(0.,1.,0.));
#419=DIRECTION('',(0.,1.,0.));
#420=DIRECTION('',(-1.,0.,0.));
#421=DIRECTION('center_axis',(0.,-1.,0.));
#422=DIRECTION('ref_axis',(0.,0.,1.));
#423=DIRECTION('',(0.,0.,1.));
#424=DIRECTION('',(-1.,0.,0.));
#425=DIRECTION('center_axis',(0.,0.,-1.));
#426=DIRECTION('ref_axis',(0.,-1.,0.));
#427=DIRECTION('',(0.,-1.,0.));
#428=DIRECTION('center_axis',(-1.,0.,0.));
#429=DIRECTION('ref_axis',(0.,0.,1.));
#430=CARTESIAN_POINT('',(0.,0.,0.));
#431=CARTESIAN_POINT('Origin',(0.,0.,0.));
#432=CARTESIAN_POINT('',(0.,15.3626579367966,2.));
#433=CARTESIAN_POINT('',(0.,17.0624307532625,2.));
#434=CARTESIAN_POINT('',(0.,-17.5,2.));
#435=CARTESIAN_POINT('',(0.,-15.3626579367966,2.));
#436=CARTESIAN_POINT('Ctrl Pts',(0.,15.3626579367738,2.00000000003572));
#437=CARTESIAN_POINT('Ctrl Pts',(0.,14.9862205622788,2.58974601088012));
#438=CARTESIAN_POINT('Ctrl Pts',(0.,14.4318200939972,3.1912691327026));
#439=CARTESIAN_POINT('Ctrl Pts',(0.,13.6846965026763,3.77359524419819));
#440=CARTESIAN_POINT('Ctrl Pts',(0.,11.959297011642,5.11841314054402));
#441=CARTESIAN_POINT('Ctrl Pts',(0.,9.22648565192105,6.28214419416474));
#442=CARTESIAN_POINT('Ctrl Pts',(0.,6.04417046095579,6.91806363027582));
#443=CARTESIAN_POINT('Ctrl Pts',(0.,2.35367296146431,7.65553272054972));
#444=CARTESIAN_POINT('Ctrl Pts',(0.,-1.91331070769413,7.68419377207601));
#445=CARTESIAN_POINT('Ctrl Pts',(0.,-5.64358680722377,6.99507398171552));
#446=CARTESIAN_POINT('Ctrl Pts',(0.,-8.83950070030373,6.40467062999387));
#447=CARTESIAN_POINT('Ctrl Pts',(0.,-11.6220728490811,5.28780824874431));
#448=CARTESIAN_POINT('Ctrl Pts',(0.,-13.4286423359698,3.96685181988108));
#449=CARTESIAN_POINT('Ctrl Pts',(0.,-14.302942043164,3.32756734875874));
#450=CARTESIAN_POINT('Ctrl Pts',(0.,-14.9438271200771,2.65616174194451));
#451=CARTESIAN_POINT('Ctrl Pts',(0.,-15.3626579367871,2.00000000001497));
#452=CARTESIAN_POINT('',(0.,-17.0624307532625,2.));
#453=CARTESIAN_POINT('',(0.,-17.5,2.));
#454=CARTESIAN_POINT('Origin',(0.,0.,0.));
#455=CARTESIAN_POINT('Origin',(0.,0.,0.));
#456=CARTESIAN_POINT('',(0.,17.0624307532625,-2.));
#457=CARTESIAN_POINT('',(0.,15.3626579367966,-2.));
#458=CARTESIAN_POINT('',(0.,17.5,-2.));
#459=CARTESIAN_POINT('',(0.,-17.0624307532625,-2.));
#460=CARTESIAN_POINT('Origin',(0.,0.,0.));
#461=CARTESIAN_POINT('',(0.,-15.3626579367966,-2.));
#462=CARTESIAN_POINT('',(0.,17.5,-2.));
#463=CARTESIAN_POINT('Ctrl Pts',(0.,-15.3626579367945,-2.00000000000337));
#464=CARTESIAN_POINT('Ctrl Pts',(0.,-15.1947781804828,-2.26300899777045));
#465=CARTESIAN_POINT('Ctrl Pts',(0.,-14.9909900547575,-2.52956886399866));
#466=CARTESIAN_POINT('Ctrl Pts',(0.,-14.7467577350245,-2.79865291251326));
#467=CARTESIAN_POINT('Ctrl Pts',(0.,-13.5678794060604,-4.09748737394196));
#468=CARTESIAN_POINT('Ctrl Pts',(0.,-11.4483088727146,-5.36727209835554));
#469=CARTESIAN_POINT('Ctrl Pts',(0.,-8.74676684914796,-6.22606234705135));
#470=CARTESIAN_POINT('Ctrl Pts',(0.,-5.44427873532002,-7.27588669323898));
#471=CARTESIAN_POINT('Ctrl Pts',(0.,-1.3070774905952,-7.71128465818787));
#472=CARTESIAN_POINT('Ctrl Pts',(0.,2.59661117908365,-7.39570570625799));
#473=CARTESIAN_POINT('Ctrl Pts',(0.,5.83117628937581,-7.13421951874936));
#474=CARTESIAN_POINT('Ctrl Pts',(0.,8.8904459803431,-6.36372249975819));
#475=CARTESIAN_POINT('Ctrl Pts',(0.,11.2079925904114,-5.26699958613498));
#476=CARTESIAN_POINT('Ctrl Pts',(0.,13.2175143409648,-4.31604199171962));
#477=CARTESIAN_POINT('Ctrl Pts',(0.,14.6438531828837,-3.1261162259628));
#478=CARTESIAN_POINT('Ctrl Pts',(0.,15.3626579346526,-2.00000000335889));
#479=CARTESIAN_POINT('Ctrl Pts',(0.,-16.,7.44993469481307E-16));
#480=CARTESIAN_POINT('Ctrl Pts',(150.,-16.,7.44993469481307E-16));
#481=CARTESIAN_POINT('Ctrl Pts',(0.,-16.,0.313292755789998));
#482=CARTESIAN_POINT('Ctrl Pts',(150.,-16.,0.313292755789998));
#483=CARTESIAN_POINT('Ctrl Pts',(0.,-15.9537782361141,0.627128805446068));
#484=CARTESIAN_POINT('Ctrl Pts',(150.,-15.9537782361141,0.627128805446068));
#485=CARTESIAN_POINT('Ctrl Pts',(0.,-15.8559330610773,0.950230256224425));
#486=CARTESIAN_POINT('Ctrl Pts',(150.,-15.8559330610773,0.950230256224425));
#487=CARTESIAN_POINT('Ctrl Pts',(0.,-15.7534530971031,1.28863657031527));
#488=CARTESIAN_POINT('Ctrl Pts',(150.,-15.7534530971031,1.28863657031527));
#489=CARTESIAN_POINT('Ctrl Pts',(0.,-15.5911249023032,1.64207198687314));
#490=CARTESIAN_POINT('Ctrl Pts',(150.,-15.5911249023032,1.64207198687314));
#491=CARTESIAN_POINT('Ctrl Pts',(0.,-15.3626579367966,2.));
#492=CARTESIAN_POINT('Ctrl Pts',(150.,-15.3626579367966,2.));
#493=CARTESIAN_POINT('',(0.,-16.,-7.44993469481307E-16));
#494=CARTESIAN_POINT('Ctrl Pts',(0.,-15.3626579367918,2.00000000000747));
#495=CARTESIAN_POINT('Ctrl Pts',(0.,-15.5911249023009,1.64207198687806));
#496=CARTESIAN_POINT('Ctrl Pts',(0.,-15.7534530971024,1.28863657031762));
#497=CARTESIAN_POINT('Ctrl Pts',(0.,-15.8559330610773,0.950230256224425));
#498=CARTESIAN_POINT('Ctrl Pts',(0.,-15.9537782361141,0.627128805446067));
#499=CARTESIAN_POINT('Ctrl Pts',(0.,-16.,0.313292755789998));
#500=CARTESIAN_POINT('Ctrl Pts',(0.,-16.,7.44993469481307E-16));
#501=CARTESIAN_POINT('',(150.,-15.3626579367966,2.));
#502=CARTESIAN_POINT('',(0.,-15.3626579367966,2.));
#503=CARTESIAN_POINT('',(150.,-16.,-8.32667268468867E-16));
#504=CARTESIAN_POINT('Ctrl Pts',(150.,-16.,7.44993469481307E-16));
#505=CARTESIAN_POINT('Ctrl Pts',(150.,-16.,0.313292755789998));
#506=CARTESIAN_POINT('Ctrl Pts',(150.,-15.9537782361141,0.627128805446067));
#507=CARTESIAN_POINT('Ctrl Pts',(150.,-15.8559330610773,0.950230256224425));
#508=CARTESIAN_POINT('Ctrl Pts',(150.,-15.7534530971024,1.28863657031762));
#509=CARTESIAN_POINT('Ctrl Pts',(150.,-15.5911249023009,1.64207198687806));
#510=CARTESIAN_POINT('Ctrl Pts',(150.,-15.3626579367918,2.00000000000747));
#511=CARTESIAN_POINT('',(0.,-16.,-7.44993469481307E-16));
#512=CARTESIAN_POINT('Ctrl Pts',(0.,-15.3626579367966,-2.));
#513=CARTESIAN_POINT('Ctrl Pts',(150.,-15.3626579367966,-2.));
#514=CARTESIAN_POINT('Ctrl Pts',(0.,-15.8044841541282,-1.3078124893627));
#515=CARTESIAN_POINT('Ctrl Pts',(150.,-15.8044841541282,-1.3078124893627));
#516=CARTESIAN_POINT('Ctrl Pts',(0.,-16.,-0.64174307337292));
#517=CARTESIAN_POINT('Ctrl Pts',(150.,-16.,-0.64174307337292));
#518=CARTESIAN_POINT('Ctrl Pts',(0.,-16.,-7.44993469481307E-16));
#519=CARTESIAN_POINT('Ctrl Pts',(150.,-16.,-7.44993469481307E-16));
#520=CARTESIAN_POINT('Ctrl Pts',(0.,-16.,-5.55111512312578E-16));
#521=CARTESIAN_POINT('Ctrl Pts',(0.,-16.,-0.641743073373951));
#522=CARTESIAN_POINT('Ctrl Pts',(0.,-15.8044841541275,-1.30781248936484));
#523=CARTESIAN_POINT('Ctrl Pts',(0.,-15.3626579367945,-2.00000000000334));
#524=CARTESIAN_POINT('',(150.,-15.3626579367966,-2.));
#525=CARTESIAN_POINT('Ctrl Pts',(150.,-15.3626579367945,-2.00000000000334));
#526=CARTESIAN_POINT('Ctrl Pts',(150.,-15.8044841541275,-1.30781248936484));
#527=CARTESIAN_POINT('Ctrl Pts',(150.,-16.,-0.641743073373951));
#528=CARTESIAN_POINT('Ctrl Pts',(150.,-16.,-5.55111512312578E-16));
#529=CARTESIAN_POINT('',(0.,-15.3626579367966,-2.));
#530=CARTESIAN_POINT('Ctrl Pts',(0.,15.3626579346526,-2.00000000335889));
#531=CARTESIAN_POINT('Ctrl Pts',(150.,15.3626579346526,-2.00000000335889));
#532=CARTESIAN_POINT('Ctrl Pts',(0.,14.6438531828837,-3.1261162259628));
#533=CARTESIAN_POINT('Ctrl Pts',(150.,14.6438531828837,-3.1261162259628));
#534=CARTESIAN_POINT('Ctrl Pts',(0.,13.2175143409648,-4.31604199171962));
#535=CARTESIAN_POINT('Ctrl Pts',(150.,13.2175143409648,-4.31604199171962));
#536=CARTESIAN_POINT('Ctrl Pts',(0.,11.2079925904114,-5.26699958613498));
#537=CARTESIAN_POINT('Ctrl Pts',(150.,11.2079925904114,-5.26699958613498));
#538=CARTESIAN_POINT('Ctrl Pts',(0.,8.8904459803431,-6.36372249975819));
#539=CARTESIAN_POINT('Ctrl Pts',(150.,8.8904459803431,-6.36372249975819));
#540=CARTESIAN_POINT('Ctrl Pts',(0.,5.83117628937581,-7.13421951874936));
#541=CARTESIAN_POINT('Ctrl Pts',(150.,5.83117628937581,-7.13421951874936));
#542=CARTESIAN_POINT('Ctrl Pts',(0.,2.59661117908365,-7.39570570625799));
#543=CARTESIAN_POINT('Ctrl Pts',(150.,2.59661117908365,-7.39570570625799));
#544=CARTESIAN_POINT('Ctrl Pts',(0.,-1.3070774905952,-7.71128465818787));
#545=CARTESIAN_POINT('Ctrl Pts',(150.,-1.3070774905952,-7.71128465818787));
#546=CARTESIAN_POINT('Ctrl Pts',(0.,-5.44427873532002,-7.27588669323898));
#547=CARTESIAN_POINT('Ctrl Pts',(150.,-5.44427873532002,-7.27588669323898));
#548=CARTESIAN_POINT('Ctrl Pts',(0.,-8.74676684914796,-6.22606234705135));
#549=CARTESIAN_POINT('Ctrl Pts',(150.,-8.74676684914796,-6.22606234705135));
#550=CARTESIAN_POINT('Ctrl Pts',(0.,-11.4483088727146,-5.36727209835554));
#551=CARTESIAN_POINT('Ctrl Pts',(150.,-11.4483088727146,-5.36727209835554));
#552=CARTESIAN_POINT('Ctrl Pts',(0.,-13.5678794060604,-4.09748737394196));
#553=CARTESIAN_POINT('Ctrl Pts',(150.,-13.5678794060604,-4.09748737394196));
#554=CARTESIAN_POINT('Ctrl Pts',(0.,-14.7467577350245,-2.79865291251326));
#555=CARTESIAN_POINT('Ctrl Pts',(150.,-14.7467577350245,-2.79865291251326));
#556=CARTESIAN_POINT('Ctrl Pts',(0.,-14.9909900547575,-2.52956886399866));
#557=CARTESIAN_POINT('Ctrl Pts',(150.,-14.9909900547575,-2.52956886399866));
#558=CARTESIAN_POINT('Ctrl Pts',(0.,-15.1947781804828,-2.26300899777045));
#559=CARTESIAN_POINT('Ctrl Pts',(150.,-15.1947781804828,-2.26300899777045));
#560=CARTESIAN_POINT('Ctrl Pts',(0.,-15.3626579367945,-2.00000000000337));
#561=CARTESIAN_POINT('Ctrl Pts',(150.,-15.3626579367945,-2.00000000000337));
#562=CARTESIAN_POINT('',(150.,15.3626579367966,-2.));
#563=CARTESIAN_POINT('Ctrl Pts',(150.,15.3626579346526,-2.00000000335889));
#564=CARTESIAN_POINT('Ctrl Pts',(150.,14.6438531828837,-3.1261162259628));
#565=CARTESIAN_POINT('Ctrl Pts',(150.,13.2175143409648,-4.31604199171962));
#566=CARTESIAN_POINT('Ctrl Pts',(150.,11.2079925904114,-5.26699958613498));
#567=CARTESIAN_POINT('Ctrl Pts',(150.,8.8904459803431,-6.36372249975819));
#568=CARTESIAN_POINT('Ctrl Pts',(150.,5.83117628937581,-7.13421951874936));
#569=CARTESIAN_POINT('Ctrl Pts',(150.,2.59661117908365,-7.39570570625799));
#570=CARTESIAN_POINT('Ctrl Pts',(150.,-1.3070774905952,-7.71128465818787));
#571=CARTESIAN_POINT('Ctrl Pts',(150.,-5.44427873532002,-7.27588669323898));
#572=CARTESIAN_POINT('Ctrl Pts',(150.,-8.74676684914796,-6.22606234705135));
#573=CARTESIAN_POINT('Ctrl Pts',(150.,-11.4483088727146,-5.36727209835554));
#574=CARTESIAN_POINT('Ctrl Pts',(150.,-13.5678794060604,-4.09748737394196));
#575=CARTESIAN_POINT('Ctrl Pts',(150.,-14.7467577350245,-2.79865291251326));
#576=CARTESIAN_POINT('Ctrl Pts',(150.,-14.9909900547575,-2.52956886399866));
#577=CARTESIAN_POINT('Ctrl Pts',(150.,-15.1947781804828,-2.26300899777045));
#578=CARTESIAN_POINT('Ctrl Pts',(150.,-15.3626579367945,-2.00000000000337));
#579=CARTESIAN_POINT('',(0.,15.3626579367966,-2.));
#580=CARTESIAN_POINT('Ctrl Pts',(0.,15.3626579367966,2.));
#581=CARTESIAN_POINT('Ctrl Pts',(150.,15.3626579367966,2.));
#582=CARTESIAN_POINT('Ctrl Pts',(0.,15.6318815578905,1.57822052929489));
#583=CARTESIAN_POINT('Ctrl Pts',(150.,15.6318815578905,1.57822052929489));
#584=CARTESIAN_POINT('Ctrl Pts',(0.,15.8095151078545,1.16210533932291));
#585=CARTESIAN_POINT('Ctrl Pts',(150.,15.8095151078545,1.16210533932291));
#586=CARTESIAN_POINT('Ctrl Pts',(0.,15.9062458835879,0.766362652988029));
#587=CARTESIAN_POINT('Ctrl Pts',(150.,15.9062458835879,0.766362652988029));
#588=CARTESIAN_POINT('Ctrl Pts',(0.,16.1188810677822,-0.103565437263222));
#589=CARTESIAN_POINT('Ctrl Pts',(150.,16.1188810677822,-0.103565437263222));
#590=CARTESIAN_POINT('Ctrl Pts',(0.,15.9968402976349,-0.932327258724132));
#591=CARTESIAN_POINT('Ctrl Pts',(150.,15.9968402976349,-0.932327258724132));
#592=CARTESIAN_POINT('Ctrl Pts',(0.,15.4528560610916,-1.85321198599279));
#593=CARTESIAN_POINT('Ctrl Pts',(150.,15.4528560610916,-1.85321198599279));
#594=CARTESIAN_POINT('Ctrl Pts',(0.,15.4240638290746,-1.90195296954943));
#595=CARTESIAN_POINT('Ctrl Pts',(150.,15.4240638290746,-1.90195296954943));
#596=CARTESIAN_POINT('Ctrl Pts',(0.,15.3940015373388,-1.950895515063));
#597=CARTESIAN_POINT('Ctrl Pts',(150.,15.3940015373388,-1.950895515063));
#598=CARTESIAN_POINT('Ctrl Pts',(0.,15.3626579367966,-2.));
#599=CARTESIAN_POINT('Ctrl Pts',(150.,15.3626579367966,-2.));
#600=CARTESIAN_POINT('Ctrl Pts',(0.,15.3626579367966,-2.));
#601=CARTESIAN_POINT('Ctrl Pts',(0.,15.3940015373388,-1.950895515063));
#602=CARTESIAN_POINT('Ctrl Pts',(0.,15.4240638290746,-1.90195296954943));
#603=CARTESIAN_POINT('Ctrl Pts',(0.,15.4528560610916,-1.85321198599279));
#604=CARTESIAN_POINT('Ctrl Pts',(0.,15.9968402976349,-0.932327258724133));
#605=CARTESIAN_POINT('Ctrl Pts',(0.,16.1188810677822,-0.103565437263222));
#606=CARTESIAN_POINT('Ctrl Pts',(0.,15.9062458835879,0.766362652988029));
#607=CARTESIAN_POINT('Ctrl Pts',(0.,15.8095151078545,1.16210533932291));
#608=CARTESIAN_POINT('Ctrl Pts',(0.,15.6318815578905,1.57822052929489));
#609=CARTESIAN_POINT('Ctrl Pts',(0.,15.3626579367966,2.));
#610=CARTESIAN_POINT('',(150.,15.3626579367966,2.));
#611=CARTESIAN_POINT('Ctrl Pts',(150.,15.3626579367966,2.));
#612=CARTESIAN_POINT('Ctrl Pts',(150.,15.6318815578905,1.57822052929489));
#613=CARTESIAN_POINT('Ctrl Pts',(150.,15.8095151078545,1.16210533932291));
#614=CARTESIAN_POINT('Ctrl Pts',(150.,15.9062458835879,0.766362652988029));
#615=CARTESIAN_POINT('Ctrl Pts',(150.,16.1188810677822,-0.103565437263222));
#616=CARTESIAN_POINT('Ctrl Pts',(150.,15.9968402976349,-0.932327258724133));
#617=CARTESIAN_POINT('Ctrl Pts',(150.,15.4528560610916,-1.85321198599279));
#618=CARTESIAN_POINT('Ctrl Pts',(150.,15.4240638290746,-1.90195296954943));
#619=CARTESIAN_POINT('Ctrl Pts',(150.,15.3940015373388,-1.950895515063));
#620=CARTESIAN_POINT('Ctrl Pts',(150.,15.3626579367966,-2.));
#621=CARTESIAN_POINT('',(0.,15.3626579367966,2.));
#622=CARTESIAN_POINT('Ctrl Pts',(0.,-15.3626579367918,2.00000000000747));
#623=CARTESIAN_POINT('Ctrl Pts',(150.,-15.3626579367918,2.00000000000747));
#624=CARTESIAN_POINT('Ctrl Pts',(0.,-14.943827120082,2.6561617419394));
#625=CARTESIAN_POINT('Ctrl Pts',(150.,-14.943827120082,2.6561617419394));
#626=CARTESIAN_POINT('Ctrl Pts',(0.,-14.3029420431674,3.3275673487563));
#627=CARTESIAN_POINT('Ctrl Pts',(150.,-14.3029420431674,3.3275673487563));
#628=CARTESIAN_POINT('Ctrl Pts',(0.,-13.4286423359698,3.96685181988108));
#629=CARTESIAN_POINT('Ctrl Pts',(150.,-13.4286423359698,3.96685181988108));
#630=CARTESIAN_POINT('Ctrl Pts',(0.,-11.6220728490811,5.28780824874431));
#631=CARTESIAN_POINT('Ctrl Pts',(150.,-11.6220728490811,5.28780824874431));
#632=CARTESIAN_POINT('Ctrl Pts',(0.,-8.83950070030373,6.40467062999387));
#633=CARTESIAN_POINT('Ctrl Pts',(150.,-8.83950070030373,6.40467062999387));
#634=CARTESIAN_POINT('Ctrl Pts',(0.,-5.64358680722377,6.99507398171552));
#635=CARTESIAN_POINT('Ctrl Pts',(150.,-5.64358680722377,6.99507398171552));
#636=CARTESIAN_POINT('Ctrl Pts',(0.,-1.91331070769413,7.68419377207601));
#637=CARTESIAN_POINT('Ctrl Pts',(150.,-1.91331070769413,7.68419377207601));
#638=CARTESIAN_POINT('Ctrl Pts',(0.,2.35367296146431,7.65553272054972));
#639=CARTESIAN_POINT('Ctrl Pts',(150.,2.35367296146431,7.65553272054972));
#640=CARTESIAN_POINT('Ctrl Pts',(0.,6.04417046095579,6.91806363027582));
#641=CARTESIAN_POINT('Ctrl Pts',(150.,6.04417046095579,6.91806363027582));
#642=CARTESIAN_POINT('Ctrl Pts',(0.,9.22648565192105,6.28214419416474));
#643=CARTESIAN_POINT('Ctrl Pts',(150.,9.22648565192105,6.28214419416474));
#644=CARTESIAN_POINT('Ctrl Pts',(0.,11.959297011642,5.11841314054402));
#645=CARTESIAN_POINT('Ctrl Pts',(150.,11.959297011642,5.11841314054402));
#646=CARTESIAN_POINT('Ctrl Pts',(0.,13.6846965026763,3.77359524419819));
#647=CARTESIAN_POINT('Ctrl Pts',(150.,13.6846965026763,3.77359524419819));
#648=CARTESIAN_POINT('Ctrl Pts',(0.,14.4318200940048,3.19126913269672));
#649=CARTESIAN_POINT('Ctrl Pts',(150.,14.4318200940048,3.19126913269672));
#650=CARTESIAN_POINT('Ctrl Pts',(0.,14.98622056229,2.58974601086797));
#651=CARTESIAN_POINT('Ctrl Pts',(150.,14.98622056229,2.58974601086797));
#652=CARTESIAN_POINT('Ctrl Pts',(0.,15.3626579367852,2.00000000001784));
#653=CARTESIAN_POINT('Ctrl Pts',(150.,15.3626579367852,2.00000000001784));
#654=CARTESIAN_POINT('Ctrl Pts',(150.,-15.3626579367871,2.00000000001497));
#655=CARTESIAN_POINT('Ctrl Pts',(150.,-14.9438271200771,2.65616174194451));
#656=CARTESIAN_POINT('Ctrl Pts',(150.,-14.302942043164,3.32756734875874));
#657=CARTESIAN_POINT('Ctrl Pts',(150.,-13.4286423359698,3.96685181988108));
#658=CARTESIAN_POINT('Ctrl Pts',(150.,-11.6220728490811,5.28780824874431));
#659=CARTESIAN_POINT('Ctrl Pts',(150.,-8.83950070030373,6.40467062999387));
#660=CARTESIAN_POINT('Ctrl Pts',(150.,-5.64358680722377,6.99507398171552));
#661=CARTESIAN_POINT('Ctrl Pts',(150.,-1.91331070769413,7.68419377207601));
#662=CARTESIAN_POINT('Ctrl Pts',(150.,2.35367296146431,7.65553272054972));
#663=CARTESIAN_POINT('Ctrl Pts',(150.,6.04417046095579,6.91806363027582));
#664=CARTESIAN_POINT('Ctrl Pts',(150.,9.22648565192105,6.28214419416474));
#665=CARTESIAN_POINT('Ctrl Pts',(150.,11.959297011642,5.11841314054402));
#666=CARTESIAN_POINT('Ctrl Pts',(150.,13.6846965026763,3.77359524419819));
#667=CARTESIAN_POINT('Ctrl Pts',(150.,14.4318200939972,3.1912691327026));
#668=CARTESIAN_POINT('Ctrl Pts',(150.,14.9862205622788,2.58974601088012));
#669=CARTESIAN_POINT('Ctrl Pts',(150.,15.3626579367738,2.00000000003572));
#670=CARTESIAN_POINT('Ctrl Pts',(0.,-17.5,0.));
#671=CARTESIAN_POINT('Ctrl Pts',(0.,-17.5,-9.));
#672=CARTESIAN_POINT('Ctrl Pts',(0.,0.,-9.));
#673=CARTESIAN_POINT('Ctrl Pts',(0.,17.5,-9.));
#674=CARTESIAN_POINT('Ctrl Pts',(0.,17.5,0.));
#675=CARTESIAN_POINT('Ctrl Pts',(0.,17.5,9.));
#676=CARTESIAN_POINT('Ctrl Pts',(0.,0.,9.));
#677=CARTESIAN_POINT('Ctrl Pts',(0.,-17.5,9.));
#678=CARTESIAN_POINT('Ctrl Pts',(0.,-17.5,0.));
#679=CARTESIAN_POINT('Ctrl Pts',(150.,-17.5,0.));
#680=CARTESIAN_POINT('Ctrl Pts',(150.,-17.5,-9.));
#681=CARTESIAN_POINT('Ctrl Pts',(150.,0.,-9.));
#682=CARTESIAN_POINT('Ctrl Pts',(150.,17.5,-9.));
#683=CARTESIAN_POINT('Ctrl Pts',(150.,17.5,0.));
#684=CARTESIAN_POINT('Ctrl Pts',(150.,17.5,9.));
#685=CARTESIAN_POINT('Ctrl Pts',(150.,0.,9.));
#686=CARTESIAN_POINT('Ctrl Pts',(150.,-17.5,9.));
#687=CARTESIAN_POINT('Ctrl Pts',(150.,-17.5,0.));
#688=CARTESIAN_POINT('',(150.,-17.5,-1.10218211923262E-15));
#689=CARTESIAN_POINT('Origin',(150.,0.,0.));
#690=CARTESIAN_POINT('',(0.,-17.5,0.));
#691=CARTESIAN_POINT('',(0.,-17.5,-1.10218211923262E-15));
#692=CARTESIAN_POINT('Origin',(0.,0.,0.));
#693=CARTESIAN_POINT('',(0.,17.5,0.));
#694=CARTESIAN_POINT('Origin',(0.,0.,0.));
#695=CARTESIAN_POINT('Origin',(0.,0.,0.));
#696=CARTESIAN_POINT('Origin',(0.,0.,0.));
#697=CARTESIAN_POINT('Origin',(150.,0.,0.));
#698=CARTESIAN_POINT('Origin',(0.,0.,0.));
#699=CARTESIAN_POINT('',(0.,-17.5,-2.));
#700=CARTESIAN_POINT('',(0.,-17.5,-2.));
#701=CARTESIAN_POINT('',(0.,17.5,-2.));
#702=CARTESIAN_POINT('Origin',(0.,0.,0.));
#703=CARTESIAN_POINT('',(0.,-17.5,2.));
#704=CARTESIAN_POINT('',(0.,-17.5,2.));
#705=CARTESIAN_POINT('',(0.,-17.5,-2.));
#706=CARTESIAN_POINT('Origin',(0.,0.,0.));
#707=CARTESIAN_POINT('',(0.,17.5,2.));
#708=CARTESIAN_POINT('',(0.,17.5,2.));
#709=CARTESIAN_POINT('',(0.,-17.5,2.));
#710=CARTESIAN_POINT('Origin',(0.,0.,0.));
#711=CARTESIAN_POINT('',(0.,17.5,-2.));
#712=CARTESIAN_POINT('',(0.,17.5,-2.));
#713=CARTESIAN_POINT('',(0.,17.5,2.));
#714=CARTESIAN_POINT('Origin',(0.,0.,0.));
#715=CARTESIAN_POINT('',(0.,-17.5,2.));
#716=CARTESIAN_POINT('',(0.,17.5,-2.));
#717=CARTESIAN_POINT('Origin',(0.,17.5,2.));
#718=CARTESIAN_POINT('',(-25.,17.5,-2.));
#719=CARTESIAN_POINT('',(0.,17.5,-2.));
#720=CARTESIAN_POINT('',(-25.,17.5,2.));
#721=CARTESIAN_POINT('',(-25.,17.5,2.));
#722=CARTESIAN_POINT('',(0.,17.5,2.));
#723=CARTESIAN_POINT('Origin',(0.,-17.5,2.));
#724=CARTESIAN_POINT('',(-25.,-17.5,2.));
#725=CARTESIAN_POINT('',(-25.,-17.5,2.));
#726=CARTESIAN_POINT('',(0.,-17.5,2.));
#727=CARTESIAN_POINT('Origin',(0.,-17.5,-2.));
#728=CARTESIAN_POINT('',(-25.,-17.5,-2.));
#729=CARTESIAN_POINT('',(-25.,-17.5,-2.));
#730=CARTESIAN_POINT('',(0.,-17.5,-2.));
#731=CARTESIAN_POINT('Origin',(0.,17.5,-2.));
#732=CARTESIAN_POINT('',(-25.,17.5,-2.));
#733=CARTESIAN_POINT('Origin',(-25.,0.,0.));
#734=UNCERTAINTY_MEASURE_WITH_UNIT(LENGTH_MEASURE(0.01),#738,
'DISTANCE_ACCURACY_VALUE',
'Maximum model space distance between geometric entities at asserted c
onnectivities');
#735=UNCERTAINTY_MEASURE_WITH_UNIT(LENGTH_MEASURE(0.01),#738,
'DISTANCE_ACCURACY_VALUE',
'Maximum model space distance between geometric entities at asserted c
onnectivities');
#736=(
GEOMETRIC_REPRESENTATION_CONTEXT(3)
GLOBAL_UNCERTAINTY_ASSIGNED_CONTEXT((#734))
GLOBAL_UNIT_ASSIGNED_CONTEXT((#738,#740,#741))
REPRESENTATION_CONTEXT('','3D')
);
#737=(
GEOMETRIC_REPRESENTATION_CONTEXT(3)
GLOBAL_UNCERTAINTY_ASSIGNED_CONTEXT((#735))
GLOBAL_UNIT_ASSIGNED_CONTEXT((#738,#740,#741))
REPRESENTATION_CONTEXT('','3D')
);
#738=(
LENGTH_UNIT()
NAMED_UNIT(*)
SI_UNIT(.MILLI.,.METRE.)
);
#739=(
LENGTH_UNIT()
NAMED_UNIT(*)
SI_UNIT($,.METRE.)
);
#740=(
NAMED_UNIT(*)
PLANE_ANGLE_UNIT()
SI_UNIT($,.RADIAN.)
);
#741=(
NAMED_UNIT(*)
SI_UNIT($,.STERADIAN.)
SOLID_ANGLE_UNIT()
);
#742=SHAPE_DEFINITION_REPRESENTATION(#743,#744);
#743=PRODUCT_DEFINITION_SHAPE('',$,#746);
#744=SHAPE_REPRESENTATION('',(#339),#736);
#745=PRODUCT_DEFINITION_CONTEXT('part definition',#750,'design');
#746=PRODUCT_DEFINITION('2026-08-05-19-48-45-725','drone_ellipse',#747,
#745);
#747=PRODUCT_DEFINITION_FORMATION('',$,#752);
#748=PRODUCT_RELATED_PRODUCT_CATEGORY('drone_ellipse','drone_ellipse',(#752));
#749=APPLICATION_PROTOCOL_DEFINITION('international standard',
'automotive_design',2009,#750);
#750=APPLICATION_CONTEXT(
'Core Data for Automotive Mechanical Design Process');
#751=PRODUCT_CONTEXT('part definition',#750,'mechanical');
#752=PRODUCT('2026-08-05-19-48-45-725','drone_ellipse',$,(#751));
#753=PRESENTATION_STYLE_ASSIGNMENT((#754));
#754=SURFACE_STYLE_USAGE(.BOTH.,#755);
#755=SURFACE_SIDE_STYLE('',(#756));
#756=SURFACE_STYLE_FILL_AREA(#757);
#757=FILL_AREA_STYLE('Steel - Satin',(#758));
#758=FILL_AREA_STYLE_COLOUR('Steel - Satin',#759);
#759=COLOUR_RGB('Steel - Satin',0.627450980392157,0.627450980392157,0.627450980392157);
ENDSEC;
END-ISO-10303-21;
