ISO-10303-21;
HEADER;
/* Generated by software containing ST-Developer
 * from STEP Tools, Inc. (www.steptools.com) 
 */

FILE_DESCRIPTION(
/* description */ (''),
/* implementation_level */ '2;1');

FILE_NAME(
/* name */ 'taperedDroneArm.step',
/* time_stamp */ '2026-08-04T19:20:56-07:00',
/* author */ (''),
/* organization */ (''),
/* preprocessor_version */ 'ST-DEVELOPER v20.1',
/* originating_system */ 'Autodesk Translation Framework v15.8.0.0',
/* authorisation */ '');

FILE_SCHEMA (('AUTOMOTIVE_DESIGN { 1 0 10303 214 3 1 1 }'));
ENDSEC;

DATA;
#10=MECHANICAL_DESIGN_GEOMETRIC_PRESENTATION_REPRESENTATION('',(#13),#616);
#11=SHAPE_REPRESENTATION_RELATIONSHIP('SRR','None',#623,#12);
#12=ADVANCED_BREP_SHAPE_REPRESENTATION('',(#14),#615);
#13=STYLED_ITEM('',(#632),#14);
#14=MANIFOLD_SOLID_BREP('Body2',#286);
#15=FACE_BOUND('',#74,.T.);
#16=FACE_BOUND('',#84,.T.);
#17=CONICAL_SURFACE('',#311,15.,0.0499583957219428);
#18=CONICAL_SURFACE('',#315,12.75,0.0499583957219428);
#19=LINE('',#427,#26);
#20=LINE('',#438,#27);
#21=LINE('',#521,#28);
#22=LINE('',#526,#29);
#23=LINE('',#549,#30);
#24=LINE('',#599,#31);
#25=LINE('',#602,#32);
#26=VECTOR('',#343,6.);
#27=VECTOR('',#346,6.);
#28=VECTOR('',#359,15.);
#29=VECTOR('',#366,15.);
#30=VECTOR('',#371,12.75);
#31=VECTOR('',#378,6.);
#32=VECTOR('',#381,6.);
#33=B_SPLINE_CURVE_WITH_KNOTS('',3,(#419,#420,#421,#422,#423,#424),
 .UNSPECIFIED.,.F.,.F.,(4,2,4),(-0.369961970911101,-0.295106921515542,0.),
 .UNSPECIFIED.);
#34=B_SPLINE_CURVE_WITH_KNOTS('',3,(#431,#432,#433,#434,#435,#436),
 .UNSPECIFIED.,.F.,.F.,(4,2,4),(4.72326493064768,5.01837185216322,5.09322690390229),
 .UNSPECIFIED.);
#35=B_SPLINE_CURVE_WITH_KNOTS('',3,(#454,#455,#456,#457,#458,#459,#460,
#461,#462,#463,#464,#465,#466,#467,#468,#469,#470,#471,#472,#473,#474,#475),
 .UNSPECIFIED.,.F.,.F.,(4,2,2,2,2,2,2,2,2,2,4),(5.07212614834523,5.28853701925446,
5.87648817138494,6.46368348603546,6.75728114336072,7.05087880068598,7.34447645801125,
7.63807411533651,8.22526942998703,8.8132205821175,9.02963145302674),
 .UNSPECIFIED.);
#36=B_SPLINE_CURVE_WITH_KNOTS('',3,(#477,#478,#479,#480,#481,#482),
 .UNSPECIFIED.,.F.,.F.,(4,2,4),(4.72326493064768,5.01837185216322,5.01909358585591),
 .UNSPECIFIED.);
#37=B_SPLINE_CURVE_WITH_KNOTS('',3,(#488,#489,#490,#491,#492,#493,#494,
#495,#496,#497,#498,#499,#500,#501,#502,#503,#504,#505,#506,#507,#508,#509),
 .UNSPECIFIED.,.F.,.F.,(4,2,2,2,2,2,2,2,2,2,4),(0.296847267560312,0.587951152130476,
1.17590230426095,1.76309761891147,2.05669527623673,2.35029293356199,2.64389059088726,
2.93748824821252,3.52468356286304,4.11263471499351,4.40373859956368),
 .UNSPECIFIED.);
#38=B_SPLINE_CURVE_WITH_KNOTS('',3,(#514,#515,#516,#517,#518,#519),
 .UNSPECIFIED.,.F.,.F.,(4,2,4),(-0.295828655207834,-0.295106921515544,0.),
 .UNSPECIFIED.);
#39=B_SPLINE_CURVE_WITH_KNOTS('',3,(#527,#528,#529,#530,#531,#532,#533,
#534,#535,#536,#537,#538,#539,#540,#541,#542,#543,#544),.UNSPECIFIED.,.F.,
 .F.,(4,2,2,2,2,2,2,2,4),(0.370298186436989,0.437339720688251,0.874679441376502,
1.31265605856167,1.75063267574685,2.18860929293202,2.62658591011719,3.06392563080544,
3.13096716505677),.UNSPECIFIED.);
#40=B_SPLINE_CURVE_WITH_KNOTS('',3,(#551,#552,#553,#554),.UNSPECIFIED.,
 .F.,.F.,(4,4),(0.,0.294732419405745),.UNSPECIFIED.);
#41=B_SPLINE_CURVE_WITH_KNOTS('',3,(#560,#561,#562,#563,#564,#565,#566,
#567,#568,#569,#570,#571,#572,#573,#574,#575,#576,#577),.UNSPECIFIED.,.F.,
 .F.,(4,2,2,2,2,2,2,2,4),(3.79653724942804,3.93860507218194,4.3759447928702,
4.81392141005537,5.25189802724054,5.68987464442571,6.12785126161088,6.56519098229914,
6.70725880505304),.UNSPECIFIED.);
#42=B_SPLINE_CURVE_WITH_KNOTS('',3,(#583,#584,#585,#586),.UNSPECIFIED.,
 .F.,.F.,(4,4),(3.25122223630303,3.54595465570878),.UNSPECIFIED.);
#43=B_SPLINE_CURVE_WITH_KNOTS('',3,(#587,#588,#589,#590),.UNSPECIFIED.,
 .F.,.F.,(4,4),(0.,0.369388835498433),.UNSPECIFIED.);
#44=B_SPLINE_CURVE_WITH_KNOTS('',3,(#591,#592,#593,#594),.UNSPECIFIED.,
 .F.,.F.,(4,4),(3.17656582021035,3.54595465570878),.UNSPECIFIED.);
#45=CYLINDRICAL_SURFACE('',#303,17.427550312532);
#46=CYLINDRICAL_SURFACE('',#305,17.427550312532);
#47=CYLINDRICAL_SURFACE('',#313,15.);
#48=CYLINDRICAL_SURFACE('',#318,17.427550312532);
#49=CYLINDRICAL_SURFACE('',#320,17.427550312532);
#50=CYLINDRICAL_SURFACE('',#322,17.427550312532);
#51=CYLINDRICAL_SURFACE('',#328,17.25);
#52=CYLINDRICAL_SURFACE('',#329,15.);
#53=FACE_OUTER_BOUND('',#68,.T.);
#54=FACE_OUTER_BOUND('',#69,.T.);
#55=FACE_OUTER_BOUND('',#70,.T.);
#56=FACE_OUTER_BOUND('',#71,.T.);
#57=FACE_OUTER_BOUND('',#72,.T.);
#58=FACE_OUTER_BOUND('',#73,.T.);
#59=FACE_OUTER_BOUND('',#75,.T.);
#60=FACE_OUTER_BOUND('',#76,.T.);
#61=FACE_OUTER_BOUND('',#77,.T.);
#62=FACE_OUTER_BOUND('',#78,.T.);
#63=FACE_OUTER_BOUND('',#79,.T.);
#64=FACE_OUTER_BOUND('',#80,.T.);
#65=FACE_OUTER_BOUND('',#81,.T.);
#66=FACE_OUTER_BOUND('',#82,.T.);
#67=FACE_OUTER_BOUND('',#83,.T.);
#68=EDGE_LOOP('',(#180,#181,#182,#183));
#69=EDGE_LOOP('',(#184,#185,#186));
#70=EDGE_LOOP('',(#187,#188,#189));
#71=EDGE_LOOP('',(#190,#191,#192,#193,#194,#195,#196));
#72=EDGE_LOOP('',(#197,#198,#199,#200,#201,#202,#203,#204,#205,#206,#207,
#208,#209));
#73=EDGE_LOOP('',(#210,#211,#212,#213,#214,#215));
#74=EDGE_LOOP('',(#216,#217));
#75=EDGE_LOOP('',(#218,#219,#220,#221,#222,#223,#224,#225,#226,#227,#228,
#229,#230));
#76=EDGE_LOOP('',(#231));
#77=EDGE_LOOP('',(#232,#233,#234));
#78=EDGE_LOOP('',(#235,#236,#237));
#79=EDGE_LOOP('',(#238,#239,#240,#241,#242,#243));
#80=EDGE_LOOP('',(#244,#245,#246,#247,#248,#249,#250,#251,#252,#253));
#81=EDGE_LOOP('',(#254,#255,#256,#257,#258,#259));
#82=EDGE_LOOP('',(#260,#261,#262,#263));
#83=EDGE_LOOP('',(#264));
#84=EDGE_LOOP('',(#265));
#85=CIRCLE('',#301,15.);
#86=CIRCLE('',#302,17.427550312532);
#87=CIRCLE('',#304,17.427550312532);
#88=CIRCLE('',#306,17.427550312532);
#89=CIRCLE('',#308,17.25);
#90=CIRCLE('',#309,15.);
#91=CIRCLE('',#310,15.);
#92=CIRCLE('',#312,15.);
#93=CIRCLE('',#314,15.);
#94=CIRCLE('',#316,12.75);
#95=CIRCLE('',#319,17.427550312532);
#96=CIRCLE('',#321,17.427550312532);
#97=CIRCLE('',#323,17.427550312532);
#98=CIRCLE('',#325,15.);
#99=CIRCLE('',#326,17.25);
#100=CIRCLE('',#327,15.);
#101=(
BOUNDED_CURVE()
B_SPLINE_CURVE(2,(#406,#407,#408),.UNSPECIFIED.,.F.,.F.)
B_SPLINE_CURVE_WITH_KNOTS((3,3),(0.0316119066797066,0.431855081156092),
 .UNSPECIFIED.)
CURVE()
GEOMETRIC_REPRESENTATION_ITEM()
RATIONAL_B_SPLINE_CURVE((1.00001016937592,1.00007122619177,1.00004818271089))
REPRESENTATION_ITEM('')
);
#102=(
BOUNDED_CURVE()
B_SPLINE_CURVE(2,(#412,#413,#414),.UNSPECIFIED.,.F.,.F.)
B_SPLINE_CURVE_WITH_KNOTS((3,3),(0.212521825597362,0.612765000073684),
 .UNSPECIFIED.)
CURVE()
GEOMETRIC_REPRESENTATION_ITEM()
RATIONAL_B_SPLINE_CURVE((1.00004818271089,1.00007122619177,1.00001016937592))
REPRESENTATION_ITEM('')
);
#103=(
BOUNDED_CURVE()
B_SPLINE_CURVE(2,(#442,#443,#444),.UNSPECIFIED.,.F.,.F.)
B_SPLINE_CURVE_WITH_KNOTS((3,3),(0.400481035615216,0.836776657132933),
 .UNSPECIFIED.)
CURVE()
GEOMETRIC_REPRESENTATION_ITEM()
RATIONAL_B_SPLINE_CURVE((1.00005406369791,1.00005847097847,1.00000831530672))
REPRESENTATION_ITEM('')
);
#104=(
BOUNDED_CURVE()
B_SPLINE_CURVE(2,(#447,#448,#449),.UNSPECIFIED.,.F.,.F.)
B_SPLINE_CURVE_WITH_KNOTS((3,3),(0.034668301477671,0.470963922996964),
 .UNSPECIFIED.)
CURVE()
GEOMETRIC_REPRESENTATION_ITEM()
RATIONAL_B_SPLINE_CURVE((1.00000831530672,1.00005847097847,1.00005406369791))
REPRESENTATION_ITEM('')
);
#105=(
BOUNDED_CURVE()
B_SPLINE_CURVE(2,(#484,#485,#486),.UNSPECIFIED.,.F.,.F.)
B_SPLINE_CURVE_WITH_KNOTS((3,3),(0.410386339897968,0.848985834104048),
 .UNSPECIFIED.)
CURVE()
GEOMETRIC_REPRESENTATION_ITEM()
RATIONAL_B_SPLINE_CURVE((1.00005300103171,1.00005611233989,1.00000533511957))
REPRESENTATION_ITEM('')
);
#106=(
BOUNDED_CURVE()
B_SPLINE_CURVE(2,(#511,#512,#513),.UNSPECIFIED.,.F.,.F.)
B_SPLINE_CURVE_WITH_KNOTS((3,3),(0.0224328081423563,0.461032302344616),
 .UNSPECIFIED.)
CURVE()
GEOMETRIC_REPRESENTATION_ITEM()
RATIONAL_B_SPLINE_CURVE((1.00000533511957,1.00005611233989,1.00005300103171))
REPRESENTATION_ITEM('')
);
#107=(
BOUNDED_CURVE()
B_SPLINE_CURVE(2,(#556,#557,#558),.UNSPECIFIED.,.F.,.F.)
B_SPLINE_CURVE_WITH_KNOTS((3,3),(0.221794930249596,0.623879889767767),
 .UNSPECIFIED.)
CURVE()
GEOMETRIC_REPRESENTATION_ITEM()
RATIONAL_B_SPLINE_CURVE((1.00004719376909,1.00006751752077,1.00000642794574))
REPRESENTATION_ITEM('')
);
#108=(
BOUNDED_CURVE()
B_SPLINE_CURVE(2,(#579,#580,#581),.UNSPECIFIED.,.F.,.F.)
B_SPLINE_CURVE_WITH_KNOTS((3,3),(0.0204602704596453,0.42254522997243),
 .UNSPECIFIED.)
CURVE()
GEOMETRIC_REPRESENTATION_ITEM()
RATIONAL_B_SPLINE_CURVE((1.00000642794574,1.00006751752077,1.00004719376909))
REPRESENTATION_ITEM('')
);
#109=VERTEX_POINT('',#404);
#110=VERTEX_POINT('',#405);
#111=VERTEX_POINT('',#409);
#112=VERTEX_POINT('',#411);
#113=VERTEX_POINT('',#417);
#114=VERTEX_POINT('',#418);
#115=VERTEX_POINT('',#425);
#116=VERTEX_POINT('',#429);
#117=VERTEX_POINT('',#430);
#118=VERTEX_POINT('',#437);
#119=VERTEX_POINT('',#441);
#120=VERTEX_POINT('',#446);
#121=VERTEX_POINT('',#450);
#122=VERTEX_POINT('',#476);
#123=VERTEX_POINT('',#483);
#124=VERTEX_POINT('',#487);
#125=VERTEX_POINT('',#510);
#126=VERTEX_POINT('',#520);
#127=VERTEX_POINT('',#524);
#128=VERTEX_POINT('',#546);
#129=VERTEX_POINT('',#548);
#130=VERTEX_POINT('',#550);
#131=VERTEX_POINT('',#555);
#132=VERTEX_POINT('',#559);
#133=VERTEX_POINT('',#578);
#134=VERTEX_POINT('',#582);
#135=VERTEX_POINT('',#597);
#136=VERTEX_POINT('',#601);
#137=EDGE_CURVE('',#109,#110,#101,.T.);
#138=EDGE_CURVE('',#109,#111,#85,.T.);
#139=EDGE_CURVE('',#112,#111,#102,.T.);
#140=EDGE_CURVE('',#112,#110,#86,.T.);
#141=EDGE_CURVE('',#113,#114,#33,.T.);
#142=EDGE_CURVE('',#115,#113,#87,.T.);
#143=EDGE_CURVE('',#114,#115,#19,.T.);
#144=EDGE_CURVE('',#116,#117,#34,.T.);
#145=EDGE_CURVE('',#116,#118,#20,.T.);
#146=EDGE_CURVE('',#117,#118,#88,.T.);
#147=EDGE_CURVE('',#117,#119,#103,.T.);
#148=EDGE_CURVE('',#118,#115,#89,.T.);
#149=EDGE_CURVE('',#120,#113,#104,.T.);
#150=EDGE_CURVE('',#120,#121,#90,.T.);
#151=EDGE_CURVE('',#121,#119,#91,.T.);
#152=EDGE_CURVE('',#119,#120,#35,.T.);
#153=EDGE_CURVE('',#114,#122,#36,.T.);
#154=EDGE_CURVE('',#122,#123,#105,.T.);
#155=EDGE_CURVE('',#123,#124,#37,.T.);
#156=EDGE_CURVE('',#124,#125,#106,.T.);
#157=EDGE_CURVE('',#125,#116,#38,.T.);
#158=EDGE_CURVE('',#116,#126,#21,.T.);
#159=EDGE_CURVE('',#126,#126,#92,.T.);
#160=EDGE_CURVE('',#127,#127,#93,.T.);
#161=EDGE_CURVE('',#127,#121,#22,.T.);
#162=EDGE_CURVE('',#111,#109,#39,.T.);
#163=EDGE_CURVE('',#128,#128,#94,.T.);
#164=EDGE_CURVE('',#128,#129,#23,.T.);
#165=EDGE_CURVE('',#129,#130,#40,.T.);
#166=EDGE_CURVE('',#130,#131,#107,.T.);
#167=EDGE_CURVE('',#131,#132,#41,.T.);
#168=EDGE_CURVE('',#132,#133,#108,.T.);
#169=EDGE_CURVE('',#133,#134,#42,.T.);
#170=EDGE_CURVE('',#134,#112,#43,.T.);
#171=EDGE_CURVE('',#110,#129,#44,.T.);
#172=EDGE_CURVE('',#135,#125,#95,.T.);
#173=EDGE_CURVE('',#116,#135,#24,.T.);
#174=EDGE_CURVE('',#114,#136,#25,.T.);
#175=EDGE_CURVE('',#122,#136,#96,.T.);
#176=EDGE_CURVE('',#130,#133,#97,.T.);
#177=EDGE_CURVE('',#123,#132,#98,.T.);
#178=EDGE_CURVE('',#136,#135,#99,.T.);
#179=EDGE_CURVE('',#131,#124,#100,.T.);
#180=ORIENTED_EDGE('',*,*,#137,.F.);
#181=ORIENTED_EDGE('',*,*,#138,.T.);
#182=ORIENTED_EDGE('',*,*,#139,.F.);
#183=ORIENTED_EDGE('',*,*,#140,.T.);
#184=ORIENTED_EDGE('',*,*,#141,.F.);
#185=ORIENTED_EDGE('',*,*,#142,.F.);
#186=ORIENTED_EDGE('',*,*,#143,.F.);
#187=ORIENTED_EDGE('',*,*,#144,.F.);
#188=ORIENTED_EDGE('',*,*,#145,.T.);
#189=ORIENTED_EDGE('',*,*,#146,.F.);
#190=ORIENTED_EDGE('',*,*,#147,.F.);
#191=ORIENTED_EDGE('',*,*,#146,.T.);
#192=ORIENTED_EDGE('',*,*,#148,.T.);
#193=ORIENTED_EDGE('',*,*,#142,.T.);
#194=ORIENTED_EDGE('',*,*,#149,.F.);
#195=ORIENTED_EDGE('',*,*,#150,.T.);
#196=ORIENTED_EDGE('',*,*,#151,.T.);
#197=ORIENTED_EDGE('',*,*,#144,.T.);
#198=ORIENTED_EDGE('',*,*,#147,.T.);
#199=ORIENTED_EDGE('',*,*,#152,.T.);
#200=ORIENTED_EDGE('',*,*,#149,.T.);
#201=ORIENTED_EDGE('',*,*,#141,.T.);
#202=ORIENTED_EDGE('',*,*,#153,.T.);
#203=ORIENTED_EDGE('',*,*,#154,.T.);
#204=ORIENTED_EDGE('',*,*,#155,.T.);
#205=ORIENTED_EDGE('',*,*,#156,.T.);
#206=ORIENTED_EDGE('',*,*,#157,.T.);
#207=ORIENTED_EDGE('',*,*,#158,.T.);
#208=ORIENTED_EDGE('',*,*,#159,.T.);
#209=ORIENTED_EDGE('',*,*,#158,.F.);
#210=ORIENTED_EDGE('',*,*,#160,.F.);
#211=ORIENTED_EDGE('',*,*,#161,.T.);
#212=ORIENTED_EDGE('',*,*,#150,.F.);
#213=ORIENTED_EDGE('',*,*,#152,.F.);
#214=ORIENTED_EDGE('',*,*,#151,.F.);
#215=ORIENTED_EDGE('',*,*,#161,.F.);
#216=ORIENTED_EDGE('',*,*,#138,.F.);
#217=ORIENTED_EDGE('',*,*,#162,.F.);
#218=ORIENTED_EDGE('',*,*,#163,.F.);
#219=ORIENTED_EDGE('',*,*,#164,.T.);
#220=ORIENTED_EDGE('',*,*,#165,.T.);
#221=ORIENTED_EDGE('',*,*,#166,.T.);
#222=ORIENTED_EDGE('',*,*,#167,.T.);
#223=ORIENTED_EDGE('',*,*,#168,.T.);
#224=ORIENTED_EDGE('',*,*,#169,.T.);
#225=ORIENTED_EDGE('',*,*,#170,.T.);
#226=ORIENTED_EDGE('',*,*,#139,.T.);
#227=ORIENTED_EDGE('',*,*,#162,.T.);
#228=ORIENTED_EDGE('',*,*,#137,.T.);
#229=ORIENTED_EDGE('',*,*,#171,.T.);
#230=ORIENTED_EDGE('',*,*,#164,.F.);
#231=ORIENTED_EDGE('',*,*,#160,.T.);
#232=ORIENTED_EDGE('',*,*,#157,.F.);
#233=ORIENTED_EDGE('',*,*,#172,.F.);
#234=ORIENTED_EDGE('',*,*,#173,.F.);
#235=ORIENTED_EDGE('',*,*,#153,.F.);
#236=ORIENTED_EDGE('',*,*,#174,.T.);
#237=ORIENTED_EDGE('',*,*,#175,.F.);
#238=ORIENTED_EDGE('',*,*,#169,.F.);
#239=ORIENTED_EDGE('',*,*,#176,.F.);
#240=ORIENTED_EDGE('',*,*,#165,.F.);
#241=ORIENTED_EDGE('',*,*,#171,.F.);
#242=ORIENTED_EDGE('',*,*,#140,.F.);
#243=ORIENTED_EDGE('',*,*,#170,.F.);
#244=ORIENTED_EDGE('',*,*,#168,.F.);
#245=ORIENTED_EDGE('',*,*,#177,.F.);
#246=ORIENTED_EDGE('',*,*,#154,.F.);
#247=ORIENTED_EDGE('',*,*,#175,.T.);
#248=ORIENTED_EDGE('',*,*,#178,.T.);
#249=ORIENTED_EDGE('',*,*,#172,.T.);
#250=ORIENTED_EDGE('',*,*,#156,.F.);
#251=ORIENTED_EDGE('',*,*,#179,.F.);
#252=ORIENTED_EDGE('',*,*,#166,.F.);
#253=ORIENTED_EDGE('',*,*,#176,.T.);
#254=ORIENTED_EDGE('',*,*,#173,.T.);
#255=ORIENTED_EDGE('',*,*,#178,.F.);
#256=ORIENTED_EDGE('',*,*,#174,.F.);
#257=ORIENTED_EDGE('',*,*,#143,.T.);
#258=ORIENTED_EDGE('',*,*,#148,.F.);
#259=ORIENTED_EDGE('',*,*,#145,.F.);
#260=ORIENTED_EDGE('',*,*,#177,.T.);
#261=ORIENTED_EDGE('',*,*,#167,.F.);
#262=ORIENTED_EDGE('',*,*,#179,.T.);
#263=ORIENTED_EDGE('',*,*,#155,.F.);
#264=ORIENTED_EDGE('',*,*,#159,.F.);
#265=ORIENTED_EDGE('',*,*,#163,.T.);
#266=PLANE('',#300);
#267=PLANE('',#307);
#268=PLANE('',#317);
#269=PLANE('',#324);
#270=PLANE('',#330);
#271=ADVANCED_FACE('',(#53),#266,.T.);
#272=ADVANCED_FACE('',(#54),#45,.T.);
#273=ADVANCED_FACE('',(#55),#46,.T.);
#274=ADVANCED_FACE('',(#56),#267,.T.);
#275=ADVANCED_FACE('',(#57),#17,.T.);
#276=ADVANCED_FACE('',(#58,#15),#47,.F.);
#277=ADVANCED_FACE('',(#59),#18,.F.);
#278=ADVANCED_FACE('',(#60),#268,.T.);
#279=ADVANCED_FACE('',(#61),#48,.T.);
#280=ADVANCED_FACE('',(#62),#49,.T.);
#281=ADVANCED_FACE('',(#63),#50,.T.);
#282=ADVANCED_FACE('',(#64),#269,.F.);
#283=ADVANCED_FACE('',(#65),#51,.T.);
#284=ADVANCED_FACE('',(#66),#52,.F.);
#285=ADVANCED_FACE('',(#67,#16),#270,.F.);
#286=CLOSED_SHELL('',(#271,#272,#273,#274,#275,#276,#277,#278,#279,#280,
#281,#282,#283,#284,#285));
#287=DERIVED_UNIT_ELEMENT(#289,1.);
#288=DERIVED_UNIT_ELEMENT(#618,-3.);
#289=(
MASS_UNIT()
NAMED_UNIT(*)
SI_UNIT(.KILO.,.GRAM.)
);
#290=DERIVED_UNIT((#287,#288));
#291=MEASURE_REPRESENTATION_ITEM('density measure',
POSITIVE_RATIO_MEASURE(7850.),#290);
#292=PROPERTY_DEFINITION_REPRESENTATION(#297,#294);
#293=PROPERTY_DEFINITION_REPRESENTATION(#298,#295);
#294=REPRESENTATION('material name',(#296),#615);
#295=REPRESENTATION('density',(#291),#615);
#296=DESCRIPTIVE_REPRESENTATION_ITEM('Steel','Steel');
#297=PROPERTY_DEFINITION('material property','material name',#625);
#298=PROPERTY_DEFINITION('material property','density of part',#625);
#299=AXIS2_PLACEMENT_3D('',#402,#331,#332);
#300=AXIS2_PLACEMENT_3D('',#403,#333,#334);
#301=AXIS2_PLACEMENT_3D('',#410,#335,#336);
#302=AXIS2_PLACEMENT_3D('',#415,#337,#338);
#303=AXIS2_PLACEMENT_3D('',#416,#339,#340);
#304=AXIS2_PLACEMENT_3D('',#426,#341,#342);
#305=AXIS2_PLACEMENT_3D('',#428,#344,#345);
#306=AXIS2_PLACEMENT_3D('',#439,#347,#348);
#307=AXIS2_PLACEMENT_3D('',#440,#349,#350);
#308=AXIS2_PLACEMENT_3D('',#445,#351,#352);
#309=AXIS2_PLACEMENT_3D('',#451,#353,#354);
#310=AXIS2_PLACEMENT_3D('',#452,#355,#356);
#311=AXIS2_PLACEMENT_3D('',#453,#357,#358);
#312=AXIS2_PLACEMENT_3D('',#522,#360,#361);
#313=AXIS2_PLACEMENT_3D('',#523,#362,#363);
#314=AXIS2_PLACEMENT_3D('',#525,#364,#365);
#315=AXIS2_PLACEMENT_3D('',#545,#367,#368);
#316=AXIS2_PLACEMENT_3D('',#547,#369,#370);
#317=AXIS2_PLACEMENT_3D('',#595,#372,#373);
#318=AXIS2_PLACEMENT_3D('',#596,#374,#375);
#319=AXIS2_PLACEMENT_3D('',#598,#376,#377);
#320=AXIS2_PLACEMENT_3D('',#600,#379,#380);
#321=AXIS2_PLACEMENT_3D('',#603,#382,#383);
#322=AXIS2_PLACEMENT_3D('',#604,#384,#385);
#323=AXIS2_PLACEMENT_3D('',#605,#386,#387);
#324=AXIS2_PLACEMENT_3D('',#606,#388,#389);
#325=AXIS2_PLACEMENT_3D('',#607,#390,#391);
#326=AXIS2_PLACEMENT_3D('',#608,#392,#393);
#327=AXIS2_PLACEMENT_3D('',#609,#394,#395);
#328=AXIS2_PLACEMENT_3D('',#610,#396,#397);
#329=AXIS2_PLACEMENT_3D('',#611,#398,#399);
#330=AXIS2_PLACEMENT_3D('',#612,#400,#401);
#331=DIRECTION('axis',(0.,0.,1.));
#332=DIRECTION('refdir',(1.,0.,0.));
#333=DIRECTION('center_axis',(0.,0.,1.));
#334=DIRECTION('ref_axis',(1.,0.,0.));
#335=DIRECTION('center_axis',(0.,0.,-1.));
#336=DIRECTION('ref_axis',(0.6,0.8,0.));
#337=DIRECTION('center_axis',(0.,0.,1.));
#338=DIRECTION('ref_axis',(0.523982657414811,0.851728932659043,0.));
#339=DIRECTION('center_axis',(0.,0.,1.));
#340=DIRECTION('ref_axis',(0.523982657414811,0.851728932659043,0.));
#341=DIRECTION('center_axis',(0.,0.,1.));
#342=DIRECTION('ref_axis',(0.523982657414811,0.851728932659043,0.));
#343=DIRECTION('',(0.,0.,1.));
#344=DIRECTION('center_axis',(0.,0.,1.));
#345=DIRECTION('ref_axis',(0.523982657414811,0.851728932659043,0.));
#346=DIRECTION('',(0.,0.,1.));
#347=DIRECTION('center_axis',(0.,0.,1.));
#348=DIRECTION('ref_axis',(0.523982657414811,0.851728932659043,0.));
#349=DIRECTION('center_axis',(0.,0.,1.));
#350=DIRECTION('ref_axis',(1.,0.,0.));
#351=DIRECTION('center_axis',(0.,0.,1.));
#352=DIRECTION('ref_axis',(-0.529375891303818,0.848387391293793,0.));
#353=DIRECTION('center_axis',(0.,0.,-1.));
#354=DIRECTION('ref_axis',(0.6,0.8,0.));
#355=DIRECTION('center_axis',(0.,0.,-1.));
#356=DIRECTION('ref_axis',(0.6,0.8,0.));
#357=DIRECTION('center_axis',(0.,1.,0.));
#358=DIRECTION('ref_axis',(1.,0.,0.));
#359=DIRECTION('',(-0.0499376169438922,0.998752338877845,-6.11559427473843E-18));
#360=DIRECTION('center_axis',(0.,-1.,0.));
#361=DIRECTION('ref_axis',(1.,0.,0.));
#362=DIRECTION('center_axis',(0.,0.,1.));
#363=DIRECTION('ref_axis',(0.6,0.8,0.));
#364=DIRECTION('center_axis',(0.,0.,1.));
#365=DIRECTION('ref_axis',(0.6,0.8,0.));
#366=DIRECTION('',(0.,0.,1.));
#367=DIRECTION('center_axis',(0.,1.,0.));
#368=DIRECTION('ref_axis',(1.,0.,0.));
#369=DIRECTION('center_axis',(0.,-1.,0.));
#370=DIRECTION('ref_axis',(1.,0.,0.));
#371=DIRECTION('',(0.0499376169438922,-0.998752338877845,6.11559427473843E-18));
#372=DIRECTION('center_axis',(0.,0.,1.));
#373=DIRECTION('ref_axis',(1.,0.,0.));
#374=DIRECTION('center_axis',(0.,0.,-1.));
#375=DIRECTION('ref_axis',(0.523982657414811,0.851728932659043,0.));
#376=DIRECTION('center_axis',(0.,0.,-1.));
#377=DIRECTION('ref_axis',(0.523982657414811,0.851728932659043,0.));
#378=DIRECTION('',(0.,0.,-1.));
#379=DIRECTION('center_axis',(0.,0.,-1.));
#380=DIRECTION('ref_axis',(0.523982657414811,0.851728932659043,0.));
#381=DIRECTION('',(0.,0.,-1.));
#382=DIRECTION('center_axis',(0.,0.,-1.));
#383=DIRECTION('ref_axis',(0.523982657414811,0.851728932659043,0.));
#384=DIRECTION('center_axis',(0.,0.,-1.));
#385=DIRECTION('ref_axis',(0.523982657414811,0.851728932659043,0.));
#386=DIRECTION('center_axis',(0.,0.,-1.));
#387=DIRECTION('ref_axis',(0.523982657414811,0.851728932659043,0.));
#388=DIRECTION('center_axis',(0.,0.,1.));
#389=DIRECTION('ref_axis',(1.,0.,0.));
#390=DIRECTION('center_axis',(0.,0.,1.));
#391=DIRECTION('ref_axis',(0.6,0.8,0.));
#392=DIRECTION('center_axis',(0.,0.,-1.));
#393=DIRECTION('ref_axis',(-0.529375891303818,0.848387391293793,0.));
#394=DIRECTION('center_axis',(0.,0.,1.));
#395=DIRECTION('ref_axis',(0.6,0.8,0.));
#396=DIRECTION('center_axis',(0.,0.,-1.));
#397=DIRECTION('ref_axis',(7.72329060608806E-16,-1.,0.));
#398=DIRECTION('center_axis',(0.,0.,1.));
#399=DIRECTION('ref_axis',(0.6,0.8,0.));
#400=DIRECTION('center_axis',(0.,-1.,0.));
#401=DIRECTION('ref_axis',(0.,0.,-1.));
#402=CARTESIAN_POINT('',(0.,0.,0.));
#403=CARTESIAN_POINT('Origin',(5.55111512312578E-15,-132.015658007103,2.25));
#404=CARTESIAN_POINT('',(-6.44580890887874,-118.455571347959,2.25));
#405=CARTESIAN_POINT('',(-6.57211796538427,-116.068024485467,2.25));
#406=CARTESIAN_POINT('Ctrl Pts',(-6.44580890887874,-118.455571347959,2.25));
#407=CARTESIAN_POINT('Ctrl Pts',(-6.50841607868178,-117.273380739778,2.25));
#408=CARTESIAN_POINT('Ctrl Pts',(-6.57211796538427,-116.068024485467,2.25));
#409=CARTESIAN_POINT('',(6.44580890887773,-118.455571347959,2.25));
#410=CARTESIAN_POINT('Origin',(0.,-132.,2.25));
#411=CARTESIAN_POINT('',(6.57211796538427,-116.068024485467,2.25));
#412=CARTESIAN_POINT('Ctrl Pts',(6.57211796538427,-116.068024485467,2.25));
#413=CARTESIAN_POINT('Ctrl Pts',(6.50841607868083,-117.273380739777,2.25));
#414=CARTESIAN_POINT('Ctrl Pts',(6.44580890887773,-118.455571347959,2.25));
#415=CARTESIAN_POINT('Origin',(1.99840144432528E-14,-132.208866326738,2.25));
#416=CARTESIAN_POINT('Origin',(1.99840144432528E-14,-132.208866326738,0.));
#417=CARTESIAN_POINT('',(8.85869069896531,-117.200764881322,2.25));
#418=CARTESIAN_POINT('',(9.13173412499084,-117.365317500183,0.));
#419=CARTESIAN_POINT('Ctrl Pts',(8.85869069896531,-117.200764881322,2.25));
#420=CARTESIAN_POINT('Ctrl Pts',(8.89586347444627,-117.222706505424,2.09918693303735));
#421=CARTESIAN_POINT('Ctrl Pts',(8.92924843028231,-117.242596912466,1.94760662703115));
#422=CARTESIAN_POINT('Ctrl Pts',(9.07535676270775,-117.330161035211,1.19634911404823));
#423=CARTESIAN_POINT('Ctrl Pts',(9.13173412499084,-117.365317500183,0.590213843031083));
#424=CARTESIAN_POINT('Ctrl Pts',(9.13173412499084,-117.365317500183,0.));
#425=CARTESIAN_POINT('',(9.13173412499084,-117.365317500183,2.25));
#426=CARTESIAN_POINT('Origin',(1.99840144432528E-14,-132.208866326738,2.25));
#427=CARTESIAN_POINT('',(9.13173412499084,-117.365317500183,0.));
#428=CARTESIAN_POINT('Origin',(1.99840144432528E-14,-132.208866326738,0.));
#429=CARTESIAN_POINT('',(-9.13173412499084,-117.365317500183,0.));
#430=CARTESIAN_POINT('',(-8.85869069896531,-117.200764881322,2.25));
#431=CARTESIAN_POINT('Ctrl Pts',(-9.13173412499084,-117.365317500183,0.));
#432=CARTESIAN_POINT('Ctrl Pts',(-9.13173412499084,-117.365317500183,0.590213843031085));
#433=CARTESIAN_POINT('Ctrl Pts',(-9.07535676270775,-117.330161035211,1.19634911404824));
#434=CARTESIAN_POINT('Ctrl Pts',(-8.92924842935679,-117.242596911911,1.94760663178998));
#435=CARTESIAN_POINT('Ctrl Pts',(-8.89586347367958,-117.222706504972,2.09918693614789));
#436=CARTESIAN_POINT('Ctrl Pts',(-8.85869069896531,-117.200764881322,2.25));
#437=CARTESIAN_POINT('',(-9.13173412499084,-117.365317500183,2.25));
#438=CARTESIAN_POINT('',(-9.13173412499084,-117.365317500183,0.));
#439=CARTESIAN_POINT('Origin',(1.99840144432528E-14,-132.208866326738,2.25));
#440=CARTESIAN_POINT('Origin',(5.55111512312578E-15,-132.015658007103,2.25));
#441=CARTESIAN_POINT('',(-8.72462662945397,-119.798324288172,2.25));
#442=CARTESIAN_POINT('Ctrl Pts',(-8.85869069896531,-117.200764881322,2.25));
#443=CARTESIAN_POINT('Ctrl Pts',(-8.7911789965538,-118.509447141042,2.25));
#444=CARTESIAN_POINT('Ctrl Pts',(-8.72462662945397,-119.798324288172,2.25));
#445=CARTESIAN_POINT('Origin',(4.44089209850063E-15,-132.000000000001,2.25));
#446=CARTESIAN_POINT('',(8.72462662945397,-119.798324288172,2.25));
#447=CARTESIAN_POINT('Ctrl Pts',(8.72462662945397,-119.798324288172,2.25));
#448=CARTESIAN_POINT('Ctrl Pts',(8.7911789965541,-118.509447141038,2.25));
#449=CARTESIAN_POINT('Ctrl Pts',(8.85869069896531,-117.200764881322,2.25));
#450=CARTESIAN_POINT('',(-9.,-144.,2.25));
#451=CARTESIAN_POINT('Origin',(0.,-132.,2.25));
#452=CARTESIAN_POINT('Origin',(0.,-132.,2.25));
#453=CARTESIAN_POINT('Origin',(0.,0.,0.));
#454=CARTESIAN_POINT('Ctrl Pts',(-8.72462662945398,-119.798324288172,2.24999999999999));
#455=CARTESIAN_POINT('Ctrl Pts',(-8.61708473374198,-119.721428056107,2.68240220524252));
#456=CARTESIAN_POINT('Ctrl Pts',(-8.47814323362647,-119.624150514867,3.10743980286963));
#457=CARTESIAN_POINT('Ctrl Pts',(-7.85500389024347,-119.209446821733,4.63274133118241));
#458=CARTESIAN_POINT('Ctrl Pts',(-7.17829224231109,-118.800967564602,5.63933992179142));
#459=CARTESIAN_POINT('Ctrl Pts',(-5.62078299981614,-118.066327554145,7.23882292830644));
#460=CARTESIAN_POINT('Ctrl Pts',(-4.62667055436953,-117.685661456667,7.94690370163584));
#461=CARTESIAN_POINT('Ctrl Pts',(-2.95997405194605,-117.283847422452,8.66413889153139));
#462=CARTESIAN_POINT('Ctrl Pts',(-2.37544992761249,-117.177242244653,8.84783914568797));
#463=CARTESIAN_POINT('Ctrl Pts',(-1.18907541222889,-117.03527449305,9.09081650015243));
#464=CARTESIAN_POINT('Ctrl Pts',(-0.587195314650523,-117.,9.15));
#465=CARTESIAN_POINT('Ctrl Pts',(0.58719531465052,-117.,9.15));
#466=CARTESIAN_POINT('Ctrl Pts',(1.18907541222889,-117.03527449305,9.09081650015244));
#467=CARTESIAN_POINT('Ctrl Pts',(2.37544992761249,-117.177242244653,8.84783914568797));
#468=CARTESIAN_POINT('Ctrl Pts',(2.95997405194605,-117.283847422452,8.66413889153139));
#469=CARTESIAN_POINT('Ctrl Pts',(4.62667055436953,-117.685661456667,7.94690370163584));
#470=CARTESIAN_POINT('Ctrl Pts',(5.62078299981615,-118.066327554145,7.23882292830644));
#471=CARTESIAN_POINT('Ctrl Pts',(7.17829224231109,-118.800967564602,5.63933992179142));
#472=CARTESIAN_POINT('Ctrl Pts',(7.85500389024347,-119.209446821733,4.63274133118242));
#473=CARTESIAN_POINT('Ctrl Pts',(8.47814323362647,-119.624150514867,3.10743980286964));
#474=CARTESIAN_POINT('Ctrl Pts',(8.61708473374197,-119.721428056107,2.68240220524253));
#475=CARTESIAN_POINT('Ctrl Pts',(8.72462662945398,-119.798324288172,2.24999999999998));
#476=CARTESIAN_POINT('',(8.95795461991667,-117.259800840115,-1.8));
#477=CARTESIAN_POINT('Ctrl Pts',(9.13173412499084,-117.365317500183,0.));
#478=CARTESIAN_POINT('Ctrl Pts',(9.13173412499084,-117.365317500183,-0.590213843031085));
#479=CARTESIAN_POINT('Ctrl Pts',(9.07535676270775,-117.330161035211,-1.19634911404824));
#480=CARTESIAN_POINT('Ctrl Pts',(8.95852575061834,-117.2601430909,-1.79706896434394));
#481=CARTESIAN_POINT('Ctrl Pts',(8.95824036276498,-117.259972066301,-1.79853450209082));
#482=CARTESIAN_POINT('Ctrl Pts',(8.95795461991667,-117.259800840115,-1.8));
#483=CARTESIAN_POINT('',(8.82476873143511,-119.870554141401,-1.8));
#484=CARTESIAN_POINT('Ctrl Pts',(8.95795461991667,-117.259800840115,-1.8));
#485=CARTESIAN_POINT('Ctrl Pts',(8.89088255795091,-118.574954243931,-1.8));
#486=CARTESIAN_POINT('Ctrl Pts',(8.82476873143511,-119.870554141401,-1.8));
#487=CARTESIAN_POINT('',(-8.82476873143511,-119.870554141401,-1.8));
#488=CARTESIAN_POINT('Ctrl Pts',(8.82476873143511,-119.870554141401,-1.8));
#489=CARTESIAN_POINT('Ctrl Pts',(8.7092983828301,-119.786543780692,-2.38712831726643));
#490=CARTESIAN_POINT('Ctrl Pts',(8.53600791912229,-119.66265987723,-2.96580038600514));
#491=CARTESIAN_POINT('Ctrl Pts',(7.85500389024347,-119.209446821733,-4.63274133118242));
#492=CARTESIAN_POINT('Ctrl Pts',(7.17829224231109,-118.800967564602,-5.63933992179142));
#493=CARTESIAN_POINT('Ctrl Pts',(5.62078299981615,-118.066327554145,-7.23882292830644));
#494=CARTESIAN_POINT('Ctrl Pts',(4.62667055436953,-117.685661456667,-7.94690370163584));
#495=CARTESIAN_POINT('Ctrl Pts',(2.95997405194605,-117.283847422452,-8.66413889153139));
#496=CARTESIAN_POINT('Ctrl Pts',(2.37544992761249,-117.177242244653,-8.84783914568797));
#497=CARTESIAN_POINT('Ctrl Pts',(1.18907541222889,-117.03527449305,-9.09081650015243));
#498=CARTESIAN_POINT('Ctrl Pts',(0.587195314650522,-117.,-9.15));
#499=CARTESIAN_POINT('Ctrl Pts',(-0.587195314650522,-117.,-9.15));
#500=CARTESIAN_POINT('Ctrl Pts',(-1.18907541222889,-117.03527449305,-9.09081650015243));
#501=CARTESIAN_POINT('Ctrl Pts',(-2.37544992761249,-117.177242244653,-8.84783914568797));
#502=CARTESIAN_POINT('Ctrl Pts',(-2.95997405194605,-117.283847422452,-8.66413889153139));
#503=CARTESIAN_POINT('Ctrl Pts',(-4.62667055436953,-117.685661456667,-7.94690370163584));
#504=CARTESIAN_POINT('Ctrl Pts',(-5.62078299981615,-118.066327554145,-7.23882292830644));
#505=CARTESIAN_POINT('Ctrl Pts',(-7.17829224231109,-118.800967564602,-5.63933992179142));
#506=CARTESIAN_POINT('Ctrl Pts',(-7.85500389024347,-119.209446821733,-4.63274133118242));
#507=CARTESIAN_POINT('Ctrl Pts',(-8.53600791912228,-119.66265987723,-2.96580038600514));
#508=CARTESIAN_POINT('Ctrl Pts',(-8.7092983828301,-119.786543780692,-2.38712831726643));
#509=CARTESIAN_POINT('Ctrl Pts',(-8.82476873143511,-119.870554141401,-1.8));
#510=CARTESIAN_POINT('',(-8.95795461991666,-117.259800840115,-1.8));
#511=CARTESIAN_POINT('Ctrl Pts',(-8.82476873143511,-119.870554141401,-1.8));
#512=CARTESIAN_POINT('Ctrl Pts',(-8.89088255795022,-118.574954243943,-1.8));
#513=CARTESIAN_POINT('Ctrl Pts',(-8.95795461991666,-117.259800840115,-1.8));
#514=CARTESIAN_POINT('Ctrl Pts',(-8.95795461991667,-117.259800840115,-1.8));
#515=CARTESIAN_POINT('Ctrl Pts',(-8.95824036276514,-117.259972066301,-1.79853450209002));
#516=CARTESIAN_POINT('Ctrl Pts',(-8.9585257506185,-117.260143090901,-1.79706896434314));
#517=CARTESIAN_POINT('Ctrl Pts',(-9.07535676270775,-117.330161035211,-1.19634911404825));
#518=CARTESIAN_POINT('Ctrl Pts',(-9.13173412499084,-117.365317500183,-0.590213843031087));
#519=CARTESIAN_POINT('Ctrl Pts',(-9.13173412499084,-117.365317500183,0.));
#520=CARTESIAN_POINT('',(-15.,1.42124305993467E-32,-1.83697019872103E-15));
#521=CARTESIAN_POINT('',(-15.,0.,-1.83697019872103E-15));
#522=CARTESIAN_POINT('Origin',(0.,0.,0.));
#523=CARTESIAN_POINT('Origin',(0.,-132.,0.));
#524=CARTESIAN_POINT('',(-9.,-144.,0.));
#525=CARTESIAN_POINT('Origin',(0.,-132.,0.));
#526=CARTESIAN_POINT('',(-9.,-144.,0.));
#527=CARTESIAN_POINT('Ctrl Pts',(6.44580890887862,-118.455571347959,2.25000000000034));
#528=CARTESIAN_POINT('Ctrl Pts',(6.40065114232525,-118.434080715801,2.38262862185738));
#529=CARTESIAN_POINT('Ctrl Pts',(6.35148833876943,-118.410959995326,2.51387794388466));
#530=CARTESIAN_POINT('Ctrl Pts',(5.95267607626116,-118.226444971369,3.4879932248234));
#531=CARTESIAN_POINT('Ctrl Pts',(5.43522028001689,-118.005194963223,4.25453216426225));
#532=CARTESIAN_POINT('Ctrl Pts',(4.24280174247786,-117.598750899409,5.47012091861789));
#533=CARTESIAN_POINT('Ctrl Pts',(3.48351565637702,-117.385080061262,6.00380926794081));
#534=CARTESIAN_POINT('Ctrl Pts',(1.80054764574541,-117.083941712151,6.71908249947647));
#535=CARTESIAN_POINT('Ctrl Pts',(0.875953234370345,-117.,6.9));
#536=CARTESIAN_POINT('Ctrl Pts',(-0.875953234370344,-117.,6.9));
#537=CARTESIAN_POINT('Ctrl Pts',(-1.80054764574541,-117.083941712151,6.71908249947647));
#538=CARTESIAN_POINT('Ctrl Pts',(-3.48351565637701,-117.385080061262,6.00380926794081));
#539=CARTESIAN_POINT('Ctrl Pts',(-4.24280174247786,-117.598750899409,5.47012091861789));
#540=CARTESIAN_POINT('Ctrl Pts',(-5.43522028001689,-118.005194963223,4.25453216426225));
#541=CARTESIAN_POINT('Ctrl Pts',(-5.95267607626115,-118.226444971369,3.4879932248234));
#542=CARTESIAN_POINT('Ctrl Pts',(-6.35148833876948,-118.410959995326,2.51387794388454));
#543=CARTESIAN_POINT('Ctrl Pts',(-6.40065114232534,-118.434080715801,2.38262862185713));
#544=CARTESIAN_POINT('Ctrl Pts',(-6.44580890887875,-118.455571347959,2.24999999999998));
#545=CARTESIAN_POINT('Origin',(0.,0.,0.));
#546=CARTESIAN_POINT('',(-12.75,2.34024454788091E-33,-1.56142466891288E-15));
#547=CARTESIAN_POINT('Origin',(0.,0.,0.));
#548=CARTESIAN_POINT('',(-6.93888665600088,-116.222266879982,0.));
#549=CARTESIAN_POINT('',(-12.75,0.,-1.56142466891288E-15));
#550=CARTESIAN_POINT('',(-6.7064734249395,-116.123384546685,-1.8));
#551=CARTESIAN_POINT('Ctrl Pts',(-6.93888665600089,-116.222266879982,5.55111512312578E-16));
#552=CARTESIAN_POINT('Ctrl Pts',(-6.93888665600089,-116.222266879982,-0.58946483881149));
#553=CARTESIAN_POINT('Ctrl Pts',(-6.86330717051062,-116.188772786912,-1.20305356081143));
#554=CARTESIAN_POINT('Ctrl Pts',(-6.7064734249395,-116.123384546685,-1.8));
#555=CARTESIAN_POINT('',(-6.58225290334285,-118.521352192581,-1.79999999788725));
#556=CARTESIAN_POINT('Ctrl Pts',(-6.7064734249395,-116.123384546685,-1.8));
#557=CARTESIAN_POINT('Ctrl Pts',(-6.64382226917936,-117.333576248219,-1.79999999788725));
#558=CARTESIAN_POINT('Ctrl Pts',(-6.58225290334285,-118.521352192581,-1.79999999788725));
#559=CARTESIAN_POINT('',(6.58225290334285,-118.521352192581,-1.79999999788725));
#560=CARTESIAN_POINT('Ctrl Pts',(-6.58225290334285,-118.521352192581,-1.7999999957745));
#561=CARTESIAN_POINT('Ctrl Pts',(-6.5058287517782,-118.484030711917,-2.08654280564712));
#562=CARTESIAN_POINT('Ctrl Pts',(-6.410811328219,-118.438406450333,-2.36897911311566));
#563=CARTESIAN_POINT('Ctrl Pts',(-5.95267607626116,-118.226444971369,-3.4879932248234));
#564=CARTESIAN_POINT('Ctrl Pts',(-5.4352202800169,-118.005194963223,-4.25453216426225));
#565=CARTESIAN_POINT('Ctrl Pts',(-4.24280174247786,-117.598750899409,-5.47012091861789));
#566=CARTESIAN_POINT('Ctrl Pts',(-3.48351565637702,-117.385080061262,-6.00380926794081));
#567=CARTESIAN_POINT('Ctrl Pts',(-1.80054764574541,-117.083941712151,-6.71908249947647));
#568=CARTESIAN_POINT('Ctrl Pts',(-0.875953234370346,-117.,-6.9));
#569=CARTESIAN_POINT('Ctrl Pts',(0.875953234370344,-117.,-6.9));
#570=CARTESIAN_POINT('Ctrl Pts',(1.80054764574541,-117.083941712151,-6.71908249947647));
#571=CARTESIAN_POINT('Ctrl Pts',(3.48351565637702,-117.385080061262,-6.00380926794081));
#572=CARTESIAN_POINT('Ctrl Pts',(4.24280174247786,-117.598750899409,-5.47012091861789));
#573=CARTESIAN_POINT('Ctrl Pts',(5.4352202800169,-118.005194963223,-4.25453216426225));
#574=CARTESIAN_POINT('Ctrl Pts',(5.95267607626116,-118.226444971369,-3.4879932248234));
#575=CARTESIAN_POINT('Ctrl Pts',(6.410811328219,-118.438406450333,-2.36897911311566));
#576=CARTESIAN_POINT('Ctrl Pts',(6.5058287517782,-118.484030711917,-2.08654280564713));
#577=CARTESIAN_POINT('Ctrl Pts',(6.58225290334285,-118.521352192581,-1.7999999957745));
#578=CARTESIAN_POINT('',(6.70647342493951,-116.123384546685,-1.8));
#579=CARTESIAN_POINT('Ctrl Pts',(6.58225290334285,-118.521352192581,-1.79999999788725));
#580=CARTESIAN_POINT('Ctrl Pts',(6.6438222685048,-117.3335762482,-1.79999999912247));
#581=CARTESIAN_POINT('Ctrl Pts',(6.70647342493951,-116.123384546685,-1.8));
#582=CARTESIAN_POINT('',(6.93888665600089,-116.222266879982,0.));
#583=CARTESIAN_POINT('Ctrl Pts',(6.70647342493951,-116.123384546685,-1.8));
#584=CARTESIAN_POINT('Ctrl Pts',(6.86330717051062,-116.188772786912,-1.20305356081143));
#585=CARTESIAN_POINT('Ctrl Pts',(6.93888665600089,-116.222266879982,-0.58946483881149));
#586=CARTESIAN_POINT('Ctrl Pts',(6.93888665600089,-116.222266879982,-2.77555756156289E-16));
#587=CARTESIAN_POINT('Ctrl Pts',(6.93888665600089,-116.222266879982,-1.52655665885959E-15));
#588=CARTESIAN_POINT('Ctrl Pts',(6.93888665600089,-116.222266879982,0.738777670996864));
#589=CARTESIAN_POINT('Ctrl Pts',(6.81843870733841,-116.168319686261,1.51502911137971));
#590=CARTESIAN_POINT('Ctrl Pts',(6.57211796538427,-116.068024485467,2.25));
#591=CARTESIAN_POINT('Ctrl Pts',(-6.57211796538427,-116.068024485467,2.25));
#592=CARTESIAN_POINT('Ctrl Pts',(-6.81843870733841,-116.168319686261,1.51502911137971));
#593=CARTESIAN_POINT('Ctrl Pts',(-6.93888665600089,-116.222266879982,0.738777670996862));
#594=CARTESIAN_POINT('Ctrl Pts',(-6.93888665600089,-116.222266879982,-9.71445146547012E-16));
#595=CARTESIAN_POINT('Origin',(5.55111512312578E-15,-132.015658007103,0.));
#596=CARTESIAN_POINT('Origin',(1.99840144432528E-14,-132.208866326738,0.));
#597=CARTESIAN_POINT('',(-9.13173412499084,-117.365317500183,-1.8));
#598=CARTESIAN_POINT('Origin',(1.99840144432528E-14,-132.208866326738,-1.8));
#599=CARTESIAN_POINT('',(-9.13173412499084,-117.365317500183,0.));
#600=CARTESIAN_POINT('Origin',(1.99840144432528E-14,-132.208866326738,0.));
#601=CARTESIAN_POINT('',(9.13173412499084,-117.365317500183,-1.8));
#602=CARTESIAN_POINT('',(9.13173412499084,-117.365317500183,0.));
#603=CARTESIAN_POINT('Origin',(1.99840144432528E-14,-132.208866326738,-1.8));
#604=CARTESIAN_POINT('Origin',(1.99840144432528E-14,-132.208866326738,0.));
#605=CARTESIAN_POINT('Origin',(1.99840144432528E-14,-132.208866326738,-1.8));
#606=CARTESIAN_POINT('Origin',(5.55111512312578E-15,-132.015658007103,-1.8));
#607=CARTESIAN_POINT('Origin',(0.,-132.,-1.8));
#608=CARTESIAN_POINT('Origin',(4.44089209850063E-15,-132.000000000001,-1.8));
#609=CARTESIAN_POINT('Origin',(0.,-132.,-1.8));
#610=CARTESIAN_POINT('Origin',(4.44089209850063E-15,-132.000000000001,0.));
#611=CARTESIAN_POINT('Origin',(0.,-132.,0.));
#612=CARTESIAN_POINT('Origin',(0.,0.,0.));
#613=UNCERTAINTY_MEASURE_WITH_UNIT(LENGTH_MEASURE(0.01),#617,
'DISTANCE_ACCURACY_VALUE',
'Maximum model space distance between geometric entities at asserted c
onnectivities');
#614=UNCERTAINTY_MEASURE_WITH_UNIT(LENGTH_MEASURE(0.01),#617,
'DISTANCE_ACCURACY_VALUE',
'Maximum model space distance between geometric entities at asserted c
onnectivities');
#615=(
GEOMETRIC_REPRESENTATION_CONTEXT(3)
GLOBAL_UNCERTAINTY_ASSIGNED_CONTEXT((#613))
GLOBAL_UNIT_ASSIGNED_CONTEXT((#617,#619,#620))
REPRESENTATION_CONTEXT('','3D')
);
#616=(
GEOMETRIC_REPRESENTATION_CONTEXT(3)
GLOBAL_UNCERTAINTY_ASSIGNED_CONTEXT((#614))
GLOBAL_UNIT_ASSIGNED_CONTEXT((#617,#619,#620))
REPRESENTATION_CONTEXT('','3D')
);
#617=(
LENGTH_UNIT()
NAMED_UNIT(*)
SI_UNIT(.MILLI.,.METRE.)
);
#618=(
LENGTH_UNIT()
NAMED_UNIT(*)
SI_UNIT($,.METRE.)
);
#619=(
NAMED_UNIT(*)
PLANE_ANGLE_UNIT()
SI_UNIT($,.RADIAN.)
);
#620=(
NAMED_UNIT(*)
SI_UNIT($,.STERADIAN.)
SOLID_ANGLE_UNIT()
);
#621=SHAPE_DEFINITION_REPRESENTATION(#622,#623);
#622=PRODUCT_DEFINITION_SHAPE('',$,#625);
#623=SHAPE_REPRESENTATION('',(#299),#615);
#624=PRODUCT_DEFINITION_CONTEXT('part definition',#629,'design');
#625=PRODUCT_DEFINITION('DRONEARM','DRONEARM v4',#626,#624);
#626=PRODUCT_DEFINITION_FORMATION('',$,#631);
#627=PRODUCT_RELATED_PRODUCT_CATEGORY('DRONEARM v4','DRONEARM v4',(#631));
#628=APPLICATION_PROTOCOL_DEFINITION('international standard',
'automotive_design',2009,#629);
#629=APPLICATION_CONTEXT(
'Core Data for Automotive Mechanical Design Process');
#630=PRODUCT_CONTEXT('part definition',#629,'mechanical');
#631=PRODUCT('DRONEARM','DRONEARM v4',$,(#630));
#632=PRESENTATION_STYLE_ASSIGNMENT((#633));
#633=SURFACE_STYLE_USAGE(.BOTH.,#634);
#634=SURFACE_SIDE_STYLE('',(#635));
#635=SURFACE_STYLE_FILL_AREA(#636);
#636=FILL_AREA_STYLE('Steel - Satin',(#637));
#637=FILL_AREA_STYLE_COLOUR('Steel - Satin',#638);
#638=COLOUR_RGB('Steel - Satin',0.627450980392157,0.627450980392157,0.627450980392157);
ENDSEC;
END-ISO-10303-21;
